<?xml version="1.0" encoding="UTF-8" standalone="no"?>
<!DOCTYPE svg PUBLIC "-//W3C//DTD SVG 1.1//EN" "http://www.w3.org/Graphics/SVG/1.1/DTD/svg11.dtd">
<svg width="100%" height="100%" viewBox="0 0 1200 2200" version="1.1" xmlns="http://www.w3.org/2000/svg" xmlns:xlink="http://www.w3.org/1999/xlink" xml:space="preserve" xmlns:serif="http://www.serif.com/" style="fill-rule:evenodd;clip-rule:evenodd;stroke-linecap:round;stroke-linejoin:round;stroke-miterlimit:1.5;">
    <path d="M523.722,74.475C495.274,55.929 490.018,15.91 414.469,24.652C363.435,30.557 362.635,124.471 256.831,142.105C194.69,152.462 111.394,47.956 57.346,165.879C25.895,234.499 135.701,294.264 118.117,399.768C105.946,472.793 44.431,435.594 16.41,534.201C0.495,590.209 133.472,715.296 99.634,794.146C67.446,869.152 42.257,899.29 81.565,960.437C147.836,1063.53 107.267,1070.63 66.098,1124.15C-22.023,1238.7 116.231,1289.04 131.561,1360.58C151.982,1455.88 103.616,1440.82 55.366,1537.32C-2.724,1653.5 214.47,1661.79 79.488,1788.85C6.085,1857.94 4.115,1988 149.268,1941.1C215.675,1919.64 223.749,1981.76 196.733,2007.6C16.744,2179.71 228.781,2214.08 334.39,2107.44C372.147,2069.31 389.907,2059.54 412.985,2055.62C439.64,2051.09 476.728,2064.64 512.805,2096.71C607.57,2180.94 688.767,1967.82 746.991,1965.81C892.659,1960.79 902.089,2207.85 1036.95,2132.93C1100.93,2097.38 1016.61,1969.68 1021.22,1945.12C1041.35,1837.86 1168.11,1907.55 1162.07,1798.9C1158.48,1734.13 1033.69,1664.87 1119.15,1593.66C1229.11,1502.02 1125.36,1413.09 1113.78,1403.17C1062.49,1359.21 995.203,1275.84 1082.18,1225.48C1121.03,1202.99 1234.85,1044.24 1153.4,968.816C1090.89,910.94 1073.27,893.555 1087.61,815.511C1114.25,754.317 1119.84,784.929 1172.38,670.696C1204.36,601.171 1121.36,542.899 1116.83,504.982C1120.9,429.538 1267.16,393.706 1142.11,309.181C1098.63,279.794 1009.46,314.072 1065.49,191.829C1115.78,82.104 1037.53,20.161 928.659,75.122C908.031,85.536 868.917,140.837 794.426,67.162C784.162,57.01 711.714,13.229 665.732,36.22C617.704,60.233 564.074,100.78 523.722,74.475Z" style="fill:none;stroke:black;stroke-width:8.33px;"/>
</svg>
