<?xml version="1.0" encoding="UTF-8" standalone="no"?>
<!DOCTYPE svg PUBLIC "-//W3C//DTD SVG 1.1//EN" "http://www.w3.org/Graphics/SVG/1.1/DTD/svg11.dtd">
<svg width="100%" height="100%" viewBox="0 0 1200 2000" version="1.1" xmlns="http://www.w3.org/2000/svg" xmlns:xlink="http://www.w3.org/1999/xlink" xml:space="preserve" xmlns:serif="http://www.serif.com/" style="fill-rule:evenodd;clip-rule:evenodd;stroke-linecap:round;stroke-linejoin:round;stroke-miterlimit:1.5;">
    <g transform="matrix(1.03181,0,0,1.0249,-17.3489,-30.2471)">
        <path d="M255.006,268.147C255.006,268.147 93.281,201.799 78.571,235.422C38.879,326.146 189.395,373.498 197.429,400.813C225.34,495.713 120.972,413.198 82.528,474.707C-3.177,611.836 216.15,608.601 206.098,689.024C201.213,728.1 153.294,701.073 126.829,759.756C63.413,900.376 222.268,852.029 215.854,909.756C212.875,936.56 15.656,929.672 69.18,1071.08C82.485,1106.24 169.961,1116.72 175.61,1118.29C282.724,1148.18 248.406,1181.5 242.683,1186.59C210.966,1214.78 123.322,1210.88 131.707,1307.32C137.266,1371.24 303.373,1346.98 235.366,1409.76C218.06,1425.73 50.035,1404.58 55.235,1534.59C60.721,1671.72 183.199,1672.47 203.659,1674.39C374.866,1690.5 150.855,1772.14 165.209,1852.52C175.602,1910.71 424.911,2002.17 352.439,1767.07C335.335,1711.59 392.3,1687.78 424.39,1730.49C440.969,1752.56 428.617,1894.84 492.517,1862.89C518.046,1850.12 508.183,1701.89 562.195,1739.02C595.694,1762.06 632.248,1912.69 701.12,1895.47C770.38,1878.16 677.671,1744.52 698.298,1719.65C731.401,1679.75 710.529,1872.95 863.348,1840.78C898.483,1833.38 1025.66,1776.86 915.854,1721.95C844.689,1686.37 919.526,1601.62 990.244,1669.51C1103.97,1778.69 1141.04,1566.77 1076.83,1546.34C997.508,1521.1 1021.94,1456.01 1089.02,1451.22C1137.37,1447.77 1205.3,1343.79 1089.02,1298.78C1082.5,1296.26 1051.81,1283.47 1054.88,1218.29C1058.06,1150.78 1198.48,1090.09 1087.81,1014.63C1051.34,989.769 985.389,1045.2 985.366,967.073C985.348,906.319 1173.89,950.687 1137.81,779.268C1119.54,692.529 1042.83,748.845 1037.73,626.407C1033.72,530.152 1138.4,552.657 1138.09,381.959C1138.06,364.412 1095.5,322.106 1059.53,338.839C1009.7,362.015 970.339,417.487 932.927,398.78C913.286,388.96 921.681,350.949 943.317,323.131C984.146,270.637 989.343,306.692 1010.98,224.39C1031.32,147.008 942.028,137.301 919.733,151.329C871.231,181.846 855.123,353.311 810.976,290.244C787.53,256.751 856.233,126.981 766.099,168.292C725.864,186.733 780.496,318.826 710.976,323.171C708.869,323.302 655.02,304.246 659.756,242.683C663.365,195.762 662.005,89.947 615.494,96.591C536.943,107.813 618.536,288.39 539.024,296.341C446.556,305.588 512.528,37.56 407.474,83.521C355.521,106.25 408.55,234.626 319.508,208.258C259.066,190.36 345.136,88.325 233.341,80.872C226.01,80.383 124.822,128.293 224.255,202.867C228.066,205.726 262.27,238.905 263.061,246.815C264.989,266.091 255.006,268.147 255.006,268.147Z" style="fill:none;stroke:black;stroke-width:14.27px;"/>
    </g>
</svg>
