<?xml version="1.0" encoding="UTF-8" standalone="no"?>
<!DOCTYPE svg PUBLIC "-//W3C//DTD SVG 1.1//EN" "http://www.w3.org/Graphics/SVG/1.1/DTD/svg11.dtd">
<svg width="100%" height="100%" viewBox="0 0 1014 1936" version="1.1" xmlns="http://www.w3.org/2000/svg" xmlns:xlink="http://www.w3.org/1999/xlink" xml:space="preserve" xmlns:serif="http://www.serif.com/" style="fill-rule:evenodd;clip-rule:evenodd;stroke-linejoin:round;stroke-miterlimit:2;">
    <g transform="matrix(1.10143,0,0,1.14242,444.547,39.8208)">
        <path d="M0,0C12.832,-0.745 23.605,5.774 34.152,12.188C35.395,12.874 36.639,13.559 37.883,14.242C41.789,16.566 43.539,18.544 46.152,22.188L46.152,24.188L48.152,24.188C49.879,26.051 49.879,26.051 51.777,28.5C52.409,29.301 53.041,30.101 53.691,30.926C55.152,33.188 55.152,33.188 55.152,36.188C56.142,36.518 57.132,36.847 58.152,37.188C58.915,38.219 59.679,39.25 60.465,40.313C65.921,46.965 75.716,51.325 84.152,52.188C99.269,52.991 113.532,52.291 127.152,45.188C128.653,44.47 128.653,44.47 130.184,43.738C134.953,41.444 139.482,39.071 143.84,36.063C152.47,30.161 162.077,27.468 172.071,24.756C173.893,24.258 175.707,23.733 177.52,23.203C199.377,17.538 222.533,21.656 243.829,27.562C246.712,28.338 249.612,29.027 252.519,29.71C264.627,32.588 274.739,36.248 284.496,44.102C287.048,46.207 287.048,46.207 289.684,47.648C294.767,50.817 298.49,55.599 302.34,60.125C303.2,61.124 304.059,62.123 304.945,63.152C307.128,66.154 308.202,68.624 309.152,72.188L311.152,72.188C311.812,74.828 312.472,77.468 313.152,80.188L315.152,80.188C318.688,86.433 320.162,92.097 321.152,99.188L323.152,99.188C324.345,103.064 325.152,106.104 325.152,110.188L327.152,110.188C327.425,111.04 327.425,111.04 327.703,111.91C328.934,115.69 330.188,119.382 331.84,123C333.152,126.188 333.152,126.188 333.152,130.188L335.152,130.188C335.482,132.827 335.812,135.468 336.152,138.188L338.152,138.188C338.374,138.873 338.595,139.558 338.823,140.264C339.843,143.407 340.873,146.547 341.902,149.688C342.25,150.765 342.598,151.843 342.957,152.953C346.733,164.916 346.733,164.916 354.465,174.5C355.183,175.136 355.901,175.771 356.641,176.426C361.92,180.129 367.097,181.571 373.43,182.434C374.11,182.529 374.79,182.625 375.491,182.724C376.941,182.928 378.392,183.127 379.843,183.322C382.887,183.732 385.927,184.166 388.969,184.599C390.502,184.817 392.035,185.034 393.568,185.25C400.295,186.199 407.009,187.22 413.715,188.313C414.651,188.459 415.588,188.605 416.552,188.756C422.325,189.708 427.666,191.17 433.152,193.188C433.94,193.473 434.727,193.758 435.539,194.052C437.976,194.941 440.409,195.843 442.84,196.75C447.921,198.642 452.995,200.513 458.152,202.188L458.152,204.188C458.874,204.456 459.596,204.724 460.34,205C465.554,207.201 468.893,209.48 472.152,214.188L472.152,216.188L474.152,216.188C474.996,217.766 475.827,219.35 476.652,220.938C477.116,221.819 477.58,222.701 478.059,223.609C479.152,226.188 479.152,226.188 479.152,230.188L481.152,230.188C485.465,244.086 489.331,257.731 491.152,272.188C491.283,273.178 491.413,274.168 491.547,275.188C493.369,292.292 493.235,310.699 489.086,327.414C488.392,330.218 487.742,333.016 487.125,335.836C484.057,349.617 479.818,362.869 475.152,376.188L473.152,376.188C472.884,376.909 472.616,377.631 472.34,378.375C470.35,383.089 468.035,386.806 464.152,390.188L462.152,390.188L462.152,392.188C460.465,393.668 460.465,393.668 458.152,395.375C450.126,401.446 442.88,408.002 436.309,415.641C428.343,424.752 417.83,434.28 406.152,438.188L406.152,440.188C403.507,442.039 400.806,443.774 398.078,445.5C392.905,449.019 390.515,452.06 389.152,458.188C383.901,486.157 389.784,530.062 404.69,554.732C412.839,566.183 428.054,577.744 442.152,580.188C445.854,580.466 449.563,580.575 453.271,580.713C462.866,581.165 473.113,583.166 480.152,590.188C486.152,597.138 486.152,597.138 486.152,600.188L488.152,600.188C488.482,602.168 488.812,604.148 489.152,606.188L491.152,606.188C500.388,632.983 501.81,661.011 501.152,689.188C501.125,690.961 501.125,690.961 501.098,692.77C500.183,713.29 493.508,734.028 484.152,752.188L482.152,752.188C481.925,752.848 481.699,753.508 481.465,754.188C480.026,757.476 478.237,760.325 476.273,763.32C474.996,765.295 474.996,765.295 474.152,768.188L472.152,768.188C471.946,768.848 471.74,769.508 471.527,770.188C469.948,773.634 467.865,776.269 465.551,779.25C463.966,781.445 462.959,783.605 462.152,786.188L460.152,786.188C460.09,786.971 460.029,787.755 459.965,788.563C459.236,791.815 458.391,793.805 456.84,796.688C453.588,802.909 451.953,809.434 450.152,816.188C449.372,818.83 448.571,821.466 447.766,824.102C447.563,824.79 447.361,825.478 447.152,826.188C446.964,826.77 446.776,827.353 446.582,827.953C442.583,848.747 447.726,874.405 458.59,892.313C459.084,893.037 459.577,893.761 460.086,894.508C461.152,896.188 461.152,896.188 461.152,898.188L463.152,898.188C463.672,899.105 464.191,900.023 464.727,900.969C469.095,908.666 473.559,916.244 478.422,923.641C478.829,924.265 479.237,924.888 479.656,925.531C480.472,926.779 481.293,928.024 482.119,929.266C484.018,932.174 485.636,934.713 486.152,938.188L488.152,938.188C488.993,939.62 489.825,941.059 490.652,942.5C491.116,943.301 491.58,944.101 492.059,944.926C493.152,947.188 493.152,947.188 493.152,950.188L495.152,950.188C495.49,951.068 495.828,951.948 496.176,952.855C496.845,954.598 496.845,954.598 497.527,956.375C497.968,957.524 498.409,958.672 498.863,959.855C499.634,961.846 500.424,963.83 501.254,965.797C502.996,970.433 503.476,975.302 504.152,980.188C504.435,982.08 504.435,982.08 504.723,984.012C509.536,1020.25 509.577,1066.22 491.652,1098.94C491.262,1099.67 490.871,1100.39 490.469,1101.14C487.181,1107.24 484.083,1112.26 479.152,1117.19C478.595,1118.12 476.815,1121.08 476.152,1122.19L474.152,1122.19C473.889,1122.77 473.626,1123.35 473.355,1123.95C472.095,1126.29 470.696,1127.98 468.902,1129.94C465.811,1133.37 463.067,1136.94 460.414,1140.72C459.998,1141.2 459.581,1141.69 459.152,1142.19L457.152,1142.19C456.764,1143.03 456.764,1143.03 456.367,1143.88C455.011,1146.45 453.42,1148.71 451.715,1151.06C445.868,1159.35 444.023,1165.79 443.914,1175.9C443.906,1176.63 443.898,1177.37 443.89,1178.12C443.876,1179.67 443.865,1181.22 443.857,1182.77C443.846,1184.32 443.825,1185.88 443.796,1187.43C443.517,1202.03 446.467,1213.93 451.418,1227.7C452.152,1230.19 452.152,1230.19 452.152,1234.19L454.152,1234.19C454.481,1235.2 454.481,1235.2 454.816,1236.24C456.909,1242.38 459.421,1247.67 462.98,1253.09C464.152,1255.19 464.152,1255.19 464.152,1258.19L466.152,1258.19C471.929,1264.66 476.406,1272.56 481.027,1279.88C481.885,1281.21 481.885,1281.21 482.759,1282.57C485.984,1287.75 488.047,1292.17 489.152,1298.19L491.152,1298.19C491.806,1300.35 492.45,1302.52 493.09,1304.69C493.449,1305.89 493.809,1307.1 494.18,1308.34C496.466,1317.38 496.395,1326.42 496.402,1335.69C496.403,1336.76 496.403,1336.76 496.404,1337.86C496.389,1348.27 496.017,1358.09 493.152,1368.19C492.965,1368.87 492.777,1369.55 492.584,1370.25C490.438,1377.93 487.945,1385.14 484.152,1392.19C483.786,1393.51 483.444,1394.84 483.152,1396.19L481.152,1396.19C480.925,1396.85 480.699,1397.51 480.465,1398.19C478.742,1402.12 476.481,1405.59 474.152,1409.19C473.513,1410.26 472.874,1411.33 472.215,1412.44C469.866,1415.57 467.546,1417.27 464.152,1419.19L462.152,1419.19L462.152,1421.19C456.848,1423.98 451.774,1426.18 445.996,1427.77C445.227,1427.98 444.457,1428.19 443.664,1428.41C434.128,1430.89 424.432,1431.87 414.652,1432.88C412.815,1433.08 410.978,1433.28 409.141,1433.48C402.146,1434.24 395.151,1434.99 388.148,1435.68C380.313,1436.46 372.755,1437.34 365.277,1439.94C364.492,1440.2 363.707,1440.46 362.897,1440.73C351.818,1444.54 340.94,1448.85 335.09,1459.62C334.427,1461.14 333.784,1462.66 333.152,1464.19C332.633,1465.3 332.113,1466.41 331.578,1467.55C319.869,1493.81 331.626,1525.85 337.938,1552.35C339.913,1560.79 341.578,1569.28 343.119,1577.81C343.387,1579.28 343.657,1580.76 343.932,1582.24C349.189,1610.71 349.189,1610.71 342.027,1622.19C334.471,1631.42 319.62,1639 308.152,1641.19C305.305,1641.46 302.48,1641.52 299.621,1641.52C298.827,1641.53 298.033,1641.54 297.214,1641.54C295.54,1641.55 293.866,1641.56 292.192,1641.56C289.686,1641.56 287.182,1641.6 284.676,1641.64C270.727,1641.74 258.164,1639.43 245.34,1633.75C244.64,1633.45 243.94,1633.15 243.218,1632.85C238.194,1630.69 233.206,1628.45 228.254,1626.13C226.036,1625.09 226.036,1625.09 223.152,1624.19L223.152,1622.19C222.572,1622.01 221.992,1621.82 221.395,1621.64C216.761,1620.15 212.455,1618.5 208.152,1616.19L208.152,1614.19C207.14,1613.93 206.129,1613.68 205.086,1613.41C201.163,1612.29 197.783,1610.55 194.215,1608.56C193.071,1607.93 191.928,1607.3 190.75,1606.65C189.893,1606.17 189.036,1605.68 188.152,1605.19L188.152,1603.19C187.286,1603.01 187.286,1603.01 186.402,1602.84C178.95,1600.69 173,1594.44 167.578,1589.15C164.02,1585.74 160.469,1583.48 156.152,1581.19L156.152,1579.19C155.327,1578.96 154.502,1578.73 153.652,1578.5C150.027,1577.14 147.112,1575.41 143.887,1573.31C142.147,1572.14 142.147,1572.14 140.152,1571.19L140.152,1569.19C139.183,1569.08 138.214,1568.98 137.215,1568.88C130.585,1567.93 124.349,1565.34 118.172,1562.84C99.098,1556.71 75.805,1561.63 57.238,1567.32C54.218,1568.17 51.254,1568.73 48.152,1569.19L48.152,1571.19C47.616,1571.38 47.08,1571.58 46.527,1571.78C35.71,1575.91 25.323,1581.26 15.27,1586.99C13.745,1587.85 12.207,1588.69 10.66,1589.51C5.282,1592.36 0.125,1595.43 -4.973,1598.75C-19.361,1608.11 -19.361,1608.11 -25.848,1609.19L-25.848,1611.19C-26.391,1611.37 -26.935,1611.55 -27.496,1611.73C-31.414,1613.04 -35.327,1614.35 -39.23,1615.69C-49.427,1619.19 -59.695,1622.41 -70.035,1625.46C-71.397,1625.86 -72.758,1626.26 -74.118,1626.66C-93.464,1632.42 -115.022,1633.62 -134.848,1629.19C-136.449,1628.88 -136.449,1628.88 -138.082,1628.56C-164.065,1623.19 -181.028,1607.37 -195.848,1586.19C-202.062,1576.44 -203.391,1565.02 -203.285,1553.69C-203.28,1552.56 -203.274,1551.44 -203.269,1550.28C-203.096,1540.64 -201.693,1531.58 -199.356,1522.25C-198.903,1520.41 -198.51,1518.56 -198.125,1516.71C-195.352,1503.86 -188.323,1491.2 -179.848,1481.19C-178.717,1479.75 -177.593,1478.32 -176.473,1476.88C-175.574,1475.72 -175.574,1475.72 -174.656,1474.55C-172.41,1471.62 -170.249,1468.63 -168.109,1465.62C-167.485,1464.91 -167.485,1464.91 -166.848,1464.19L-164.848,1464.19C-164.415,1463.04 -164.415,1463.04 -163.973,1461.88C-162.848,1459.19 -162.848,1459.19 -160.848,1456.19L-158.848,1456.19C-158.518,1454.87 -158.188,1453.55 -157.848,1452.19L-155.848,1452.19C-155.736,1451.62 -155.623,1451.06 -155.508,1450.48C-154.754,1447.86 -153.637,1445.81 -152.285,1443.44C-149.638,1438.67 -147.111,1433.87 -144.66,1429C-144.327,1428.35 -143.995,1427.69 -143.652,1427.02C-141.39,1422.51 -139.563,1417.93 -137.848,1413.19C-137.327,1411.82 -136.804,1410.45 -136.277,1409.08C-135.893,1408.07 -135.893,1408.07 -135.5,1407.04C-134.977,1405.67 -134.451,1404.3 -133.922,1402.92C-129.171,1390.4 -130.665,1378.19 -132.848,1365.19L-134.848,1365.19C-135.435,1363.89 -135.435,1363.89 -136.035,1362.56C-141.107,1353.12 -148.801,1347.44 -158.998,1344.18C-182.676,1337.53 -206.032,1335.85 -230.468,1334.59C-247.496,1333.69 -264.4,1332.34 -280.91,1327.81C-281.698,1327.6 -282.487,1327.39 -283.299,1327.17C-288.41,1325.74 -293.04,1323.94 -297.691,1321.36C-299.89,1320.16 -302.066,1319.3 -304.41,1318.44C-309.341,1316.52 -313.983,1314.14 -318.66,1311.69C-319.39,1311.31 -320.12,1310.93 -320.871,1310.54C-331.864,1304.68 -331.864,1304.68 -333.848,1298.19L-335.848,1298.19C-337.563,1295.21 -339.209,1292.2 -340.848,1289.19C-341.453,1288.18 -341.453,1288.18 -342.07,1287.15C-349.717,1272.95 -343.353,1252.26 -339.082,1237.9C-336.859,1231.21 -334.262,1224.68 -331.629,1218.15C-330.978,1216.52 -330.361,1214.86 -329.754,1213.21C-327.323,1206.62 -323.771,1201 -319.848,1195.19C-319.188,1194.2 -318.528,1193.21 -317.848,1192.19L-315.848,1192.19C-315.6,1191.61 -315.353,1191.03 -315.098,1190.44C-313.665,1187.86 -312.063,1186.13 -309.848,1184.19L-307.848,1184.19L-307.848,1182.19C-306.168,1180.68 -306.168,1180.68 -303.973,1179.06C-303.253,1178.52 -302.534,1177.99 -301.793,1177.43C-299.848,1176.19 -299.848,1176.19 -297.848,1176.19L-297.848,1174.19C-296.001,1172.83 -294.093,1171.55 -292.16,1170.31C-285.79,1166.22 -280.205,1161.66 -274.617,1156.58C-272.848,1155.19 -272.848,1155.19 -270.848,1155.19L-270.848,1153.19C-269.047,1151.81 -269.047,1151.81 -266.535,1150.19C-256.898,1143.59 -248.921,1136.2 -242.848,1126.19C-242.241,1125.22 -241.633,1124.26 -241.008,1123.27C-229.792,1104.2 -227.815,1078.13 -232.738,1056.79C-240.193,1032.61 -255.799,1019.57 -277.277,1007.86C-279.114,1006.93 -280.98,1006.06 -282.848,1005.19C-283.503,1004.86 -284.157,1004.54 -284.832,1004.21C-290.921,1001.31 -297.222,999.564 -303.711,997.778C-307.869,996.629 -312.017,995.45 -316.16,994.25C-317.395,993.907 -317.395,993.907 -318.656,993.557C-324.556,991.835 -329.581,989.333 -334.848,986.188C-336.364,985.352 -336.364,985.352 -337.91,984.5C-338.869,983.85 -338.869,983.85 -339.848,983.188L-339.848,981.188C-340.838,980.857 -341.828,980.528 -342.848,980.188C-350.389,971.468 -350.33,959.066 -350.223,948.125C-350.234,946.936 -350.246,945.747 -350.258,944.521C-350.227,935.107 -348.699,926.834 -344.727,918.266C-342.98,914.137 -341.649,909.839 -340.227,905.59C-338.797,902.063 -337.159,899.207 -334.848,896.188L-332.848,896.188C-332.735,895.608 -332.623,895.028 -332.507,894.431C-331.782,891.964 -330.79,890.378 -329.301,888.289C-328.527,887.199 -328.527,887.199 -327.738,886.086C-326.926,884.961 -326.926,884.961 -326.098,883.813C-325.572,883.07 -325.046,882.328 -324.504,881.563C-321.452,877.287 -318.381,873.079 -314.848,869.188L-312.848,869.188C-312.445,868.228 -312.445,868.228 -312.035,867.25C-310.848,865.188 -310.848,865.188 -307.848,864.188C-307.585,863.625 -307.322,863.063 -307.051,862.484C-305.276,859.097 -302.435,856.921 -299.598,854.438C-294.662,850.027 -290.696,845.596 -286.848,840.188L-284.848,840.188C-284.67,838.896 -284.67,838.896 -284.488,837.578C-283.064,830.041 -279.79,822.855 -276.285,816.063C-275.466,814.441 -274.654,812.816 -273.848,811.188C-273.451,810.386 -273.054,809.584 -272.645,808.758C-268.153,798.352 -268.057,784.971 -271.914,774.305C-273.432,770.862 -275.117,767.529 -276.848,764.188L-276.848,762.188L-278.848,762.188C-279.209,761.134 -279.209,761.134 -279.578,760.059C-281.054,756.72 -282.942,754.147 -285.16,751.25C-285.565,750.721 -285.969,750.192 -286.386,749.646C-290.603,744.153 -294.928,739.071 -299.848,734.188C-307.181,726.854 -314.514,719.521 -321.848,712.188C-322.726,711.315 -323.604,710.443 -324.509,709.544C-327.125,706.908 -329.571,704.152 -332.035,701.375C-336.33,696.588 -340.854,692.539 -346.047,688.711C-346.641,688.208 -347.235,687.705 -347.848,687.188L-347.848,685.188C-348.441,684.928 -349.034,684.669 -349.645,684.402C-353.591,682.226 -356.042,678.646 -358.848,675.188C-359.526,674.392 -360.204,673.597 -360.902,672.777C-370.925,660.24 -373.447,645.848 -371.848,630.188C-369.688,616.851 -364.486,609.255 -353.785,601.313C-349.376,598.198 -344.914,595.163 -340.41,592.188C-339.819,591.789 -339.228,591.391 -338.619,590.981C-335.308,588.833 -333.921,588.188 -329.848,588.188L-329.848,586.188C-323.296,582.628 -316.6,579.904 -309.614,577.356C-304.812,575.59 -300.366,573.57 -295.848,571.188C-294.693,570.754 -293.538,570.321 -292.348,569.875C-284.452,566.068 -278.65,559.391 -273.848,552.188C-272.948,544.725 -274.136,537.847 -276.191,530.684C-276.848,528.188 -276.848,528.188 -276.848,525.188L-278.848,525.188C-279.281,523.95 -279.714,522.712 -280.16,521.438C-281.364,518.225 -282.686,515.867 -284.848,513.188C-285.405,512.094 -285.961,511.001 -286.535,509.875C-288.669,506.03 -291.575,503.534 -294.945,500.766C-296.691,499.318 -298.254,497.798 -299.848,496.188C-301.068,495.094 -302.298,494.012 -303.535,492.938C-305.642,491.107 -307.747,489.277 -309.832,487.422C-314.045,483.681 -318.376,480.168 -322.867,476.766C-324.671,475.328 -326.219,473.816 -327.848,472.188C-329.626,470.693 -331.419,469.215 -333.223,467.75C-334.159,466.988 -335.094,466.226 -336.059,465.441C-337.916,463.941 -339.796,462.469 -341.699,461.027C-342.408,460.42 -343.117,459.813 -343.848,459.188L-343.848,457.188C-344.437,457.075 -345.026,456.963 -345.633,456.848C-351.877,454.987 -355.786,449.254 -359,443.922C-359.848,442.188 -359.848,442.188 -359.848,440.188L-361.848,440.188C-362.354,438.919 -362.852,437.648 -363.348,436.375C-363.626,435.667 -363.905,434.96 -364.191,434.23C-364.848,432.188 -364.848,432.188 -364.848,429.188L-366.848,429.188C-367.508,426.217 -368.168,423.248 -368.848,420.188L-370.848,420.188C-379.122,396.3 -382.577,374.294 -372.461,350.152C-366.62,339.419 -356.513,334.107 -345.848,329.188C-344.72,328.654 -343.592,328.12 -342.43,327.57C-325.22,320.064 -305.958,316.468 -287.336,314.773C-269.692,313.159 -252.676,310.813 -236.086,304.359C-232.848,303.188 -232.848,303.188 -229.848,303.188L-229.848,301.188C-228.345,300.228 -226.793,299.345 -225.223,298.5C-220.883,296.011 -217.98,293.505 -215.004,289.508C-214.622,289.072 -214.241,288.636 -213.848,288.188L-211.848,288.188C-211.58,287.445 -211.311,286.703 -211.035,285.938C-209.848,283.188 -209.848,283.188 -208.375,281.336C-206.669,278.937 -205.992,276.893 -205.223,274.063C-203.914,269.32 -203.914,269.32 -202.848,267.188C-201.901,252.956 -203.832,239.108 -212.891,227.59C-217.064,222.827 -221.497,218.55 -226.414,214.563C-226.887,214.109 -227.36,213.655 -227.848,213.188L-227.848,211.188C-228.425,211.105 -229.003,211.023 -229.598,210.938C-232.526,209.961 -233.687,208.408 -235.848,206.188C-237.953,204.605 -240.085,203.071 -242.238,201.555C-243.035,200.878 -243.035,200.878 -243.848,200.188L-243.848,198.188C-244.392,197.975 -244.936,197.762 -245.496,197.543C-257.488,190.631 -268.622,173.756 -272.473,160.75C-274.066,153.859 -274.215,146.859 -274.285,139.813C-274.296,138.814 -274.306,137.816 -274.317,136.787C-274.236,130.118 -273.103,124.451 -270.848,118.188C-270.425,116.985 -270.002,115.782 -269.566,114.543C-269.164,113.498 -268.762,112.452 -268.348,111.375C-267.945,110.317 -267.543,109.258 -267.129,108.168C-265.9,105.309 -264.624,102.744 -262.848,100.188L-260.848,100.188C-260.722,99.358 -260.722,99.358 -260.594,98.512C-257.803,89.819 -247.964,81.548 -240.848,76.188C-238.051,74.941 -238.051,74.941 -235.848,74.188L-235.848,72.188L-233.848,72.188L-233.848,70.188C-231.906,68.785 -231.906,68.785 -229.285,67.25C-228.438,66.746 -227.591,66.242 -226.719,65.723C-219.902,62.078 -213.373,60.201 -205.848,58.563C-204.889,58.346 -203.93,58.129 -202.941,57.906C-194.981,56.135 -187.27,55.025 -179.117,54.879C-178.293,54.864 -177.468,54.848 -176.619,54.833C-142.688,54.32 -142.688,54.32 -127.848,61.188C-126.883,61.62 -126.883,61.62 -125.898,62.061C-122.46,63.624 -119.124,65.31 -115.848,67.188L-115.848,69.188C-115.003,69.436 -114.159,69.685 -113.289,69.941C-109.534,71.301 -106.209,73.103 -102.785,75.125C-101.887,75.646 -101.887,75.646 -100.971,76.178C-98.315,77.722 -95.677,79.292 -93.059,80.898C-90.953,82.126 -89.231,82.746 -86.848,83.188L-86.848,85.188C-86.244,85.309 -85.641,85.43 -85.02,85.555C-84.22,85.722 -83.421,85.89 -82.598,86.063C-81.809,86.225 -81.02,86.387 -80.207,86.555C-77.848,87.188 -77.848,87.188 -76.035,88.242C-72.789,89.645 -69.571,89.484 -66.098,89.438C-65.021,89.428 -65.021,89.428 -63.922,89.419C-58.848,89.324 -54.628,88.839 -49.848,87.188C-48.651,86.796 -47.455,86.404 -46.223,86C-42.506,84.004 -40.728,81.987 -38.305,78.613C-36.848,77.188 -36.848,77.188 -32.848,77.188L-32.848,84.188L-34.848,84.188C-35.281,85.085 -35.281,85.085 -35.723,86C-37.983,90.395 -39.494,91.715 -44.098,93.313C-45.031,93.645 -45.964,93.978 -46.926,94.32C-59.574,98.074 -76.548,98.684 -88.453,92.566C-89.243,92.111 -90.034,91.656 -90.848,91.188C-92.428,90.411 -94.011,89.639 -95.598,88.875C-96.67,88.318 -97.743,87.761 -98.848,87.188L-98.848,85.188C-99.553,85.086 -100.258,84.984 -100.984,84.879C-104.258,84.088 -106.734,82.782 -109.66,81.125C-111.124,80.303 -111.124,80.303 -112.617,79.465C-113.353,79.043 -114.089,78.622 -114.848,78.188L-114.848,76.188C-115.517,76.102 -116.186,76.017 -116.875,75.93C-120.71,74.972 -123.952,73.165 -127.41,71.313C-152.719,58.215 -185.248,61.357 -211.848,69.188C-218.401,71.471 -224.2,74.175 -229.848,78.188L-231.848,78.188L-231.848,80.188C-232.466,80.27 -233.085,80.353 -233.723,80.438C-236.544,81.433 -236.567,82.551 -237.848,85.188C-239.514,86.521 -241.181,87.854 -242.848,89.188C-245.328,91.736 -247.592,94.44 -249.848,97.188C-250.621,98.123 -251.395,99.059 -252.191,100.023C-256.535,105.51 -259.679,110.163 -261.301,117C-262.042,119.964 -263.436,122.492 -264.848,125.188C-268.886,138.644 -265.778,155.822 -259.848,168.188C-256.969,173.122 -253.282,177.424 -249.652,181.82C-248.066,183.9 -246.999,185.86 -245.848,188.188C-244.534,188.891 -243.196,189.551 -241.848,190.188C-238.868,192.533 -236.18,194.845 -233.539,197.566C-230.755,200.278 -227.854,202.512 -224.723,204.813C-216.369,211.096 -208.22,218.105 -202.848,227.188L-202.848,230.188L-200.848,230.188C-200.518,232.167 -200.188,234.148 -199.848,236.188L-197.848,236.188C-195.711,244.096 -194.549,251.516 -194.535,259.688C-194.53,260.44 -194.525,261.193 -194.52,261.968C-194.596,268.114 -196.238,273.051 -198.785,278.625C-200.049,281.394 -201.235,284.167 -202.348,287C-203.86,290.213 -205.252,291.828 -207.848,294.188C-208.425,294.971 -209.003,295.755 -209.598,296.563C-217.152,305.376 -228.246,311.038 -239.184,314.328C-241.774,315.081 -241.774,315.081 -243.749,316.181C-245.899,317.212 -247.757,317.708 -250.094,318.152C-250.92,318.311 -251.747,318.47 -252.599,318.633C-253.485,318.796 -254.372,318.958 -255.285,319.125C-256.211,319.298 -257.137,319.47 -258.091,319.648C-269.339,321.702 -280.659,323.372 -292.02,324.676C-299.535,325.544 -306.923,326.675 -314.348,328.125C-315.585,328.362 -315.585,328.362 -316.848,328.603C-320.794,329.401 -324.497,330.357 -328.254,331.816C-331.848,333.188 -331.848,333.188 -334.848,333.188L-334.848,335.188C-335.503,335.395 -336.157,335.603 -336.832,335.816C-346.924,339.223 -358.954,344.232 -364.973,353.438C-373.226,371.69 -371.503,393.857 -364.848,412.188C-363.561,415.499 -362.227,418.762 -360.766,422C-359.848,424.188 -359.848,424.188 -359.848,426.188L-357.848,426.188C-356.858,429.488 -355.868,432.788 -354.848,436.188L-352.848,436.188C-351.891,437.713 -351.007,439.285 -350.16,440.875C-347.323,445.828 -344.6,448.146 -339.848,451.188L-339.848,453.188C-339.323,453.414 -338.798,453.641 -338.258,453.875C-335.004,455.647 -332.178,457.893 -329.285,460.188C-328.36,460.918 -328.36,460.918 -327.416,461.663C-321.654,466.257 -316.249,471.176 -310.848,476.188C-305.851,480.658 -300.745,485.006 -295.66,489.375C-295.065,489.887 -294.471,490.398 -293.858,490.925C-291.277,493.138 -288.699,495.302 -286.004,497.379C-283.53,499.454 -282.781,501.134 -281.848,504.188L-279.848,504.188C-279.176,505.477 -278.511,506.769 -277.848,508.063C-277.476,508.782 -277.105,509.501 -276.723,510.242C-275.848,512.188 -275.848,512.188 -275.848,514.188L-273.848,514.188C-272.514,517.521 -271.181,520.854 -269.848,524.188C-269.515,524.978 -269.183,525.768 -268.84,526.582C-266.601,532.462 -265.487,537.836 -265.535,544.125C-265.536,544.824 -265.538,545.524 -265.539,546.244C-265.638,551.543 -266.493,555.478 -268.848,560.188L-270.848,560.188C-271.075,560.744 -271.301,561.301 -271.535,561.875C-274.995,567.97 -282.299,574.451 -288.848,577.188L-291.848,577.188L-291.848,579.188C-293.008,579.623 -294.168,580.059 -295.363,580.508C-303.572,583.625 -311.564,586.849 -319.363,590.91C-321.48,591.998 -323.587,592.968 -325.785,593.875C-328.874,595.117 -328.874,595.117 -331.66,596.875C-333.848,598.188 -333.848,598.188 -335.848,598.188L-335.848,600.188C-337.678,601.364 -339.565,602.453 -341.473,603.5C-345.037,605.509 -348.389,607.427 -351.473,610.125C-353.848,612.188 -353.848,612.188 -355.848,612.188L-355.848,614.188C-356.631,614.765 -357.415,615.343 -358.223,615.938C-362.564,619.659 -363.098,624.257 -363.691,629.789C-364.225,637.986 -363.95,646.055 -362.848,654.188L-360.848,654.188C-360.663,654.782 -360.479,655.376 -360.289,655.988C-356.702,666.24 -349.887,673.832 -341.625,680.703C-339.212,682.719 -337.04,684.936 -334.848,687.188C-332.307,689.794 -329.811,692.217 -326.973,694.5C-324.741,696.328 -322.908,698.227 -321.066,700.445C-317.554,704.507 -313.809,708.29 -309.996,712.066C-309.371,712.686 -308.745,713.306 -308.101,713.945C-305.481,716.537 -302.858,719.125 -300.23,721.709C-298.294,723.615 -296.363,725.528 -294.434,727.441C-293.847,728.015 -293.26,728.588 -292.656,729.178C-288.889,732.923 -285.868,736.819 -282.848,741.188C-282.177,741.853 -281.507,742.518 -280.816,743.203C-278.21,745.83 -276.31,748.823 -274.348,751.938C-273.756,752.87 -273.756,752.87 -273.153,753.822C-265.848,765.459 -265.848,765.459 -265.848,771.188L-263.848,771.188C-262.198,777.676 -261.536,783.568 -261.598,790.25C-261.586,791.519 -261.586,791.519 -261.574,792.814C-261.603,802.215 -264.364,809.985 -267.723,818.688C-268.062,819.586 -268.401,820.484 -268.75,821.41C-270.829,826.842 -273.149,832.037 -275.848,837.188C-276.328,838.147 -276.809,839.106 -277.305,840.094C-281.638,848.385 -286.799,854.794 -294.074,860.668C-296.464,862.716 -298.635,864.949 -300.848,867.188C-301.8,868.13 -302.753,869.071 -303.707,870.012C-304.671,870.966 -305.634,871.921 -306.598,872.875C-307.338,873.603 -307.338,873.603 -308.094,874.346C-310.814,877.006 -310.814,877.006 -312.848,880.188L-314.848,880.188C-315.124,880.772 -315.4,881.357 -315.685,881.959C-316.799,884.093 -318.019,885.913 -319.457,887.84C-325.649,896.269 -331.139,904.332 -334.848,914.188C-335.151,914.951 -335.454,915.714 -335.766,916.501C-342.585,933.951 -345.599,953.155 -338.848,971.188C-336.992,974.171 -335.05,976.587 -331.848,978.188L-331.848,980.188C-327.626,981.605 -323.393,982.977 -319.148,984.324C-277.125,997.703 -277.125,997.703 -265.316,1005.59C-262.871,1007.32 -262.871,1007.32 -259.848,1008.19L-259.848,1010.19C-257.195,1011.26 -254.564,1012.28 -251.848,1013.19L-251.848,1015.19C-251.278,1015.44 -250.708,1015.7 -250.121,1015.97C-242.828,1019.89 -236.423,1026.73 -232.848,1034.19L-232.848,1038.19L-230.848,1038.19C-226.159,1049.24 -222.226,1060.1 -221.848,1072.19C-221.796,1073.4 -221.745,1074.62 -221.691,1075.87C-221.402,1085.66 -222.713,1094.65 -224.848,1104.19C-225.138,1105.73 -225.138,1105.73 -225.434,1107.3C-227.314,1116.33 -231.533,1124.11 -235.848,1132.19L-237.848,1132.19C-238.087,1132.91 -238.327,1133.63 -238.574,1134.37C-240.034,1137.6 -241.823,1139.71 -244.223,1142.31C-244.994,1143.16 -245.764,1144.01 -246.559,1144.88C-248.567,1146.9 -250.462,1148.63 -252.848,1150.19L-254.848,1150.19L-254.848,1152.19C-256.695,1153.69 -258.602,1155.11 -260.535,1156.5C-264.679,1159.48 -268.277,1162.55 -271.848,1166.19C-273.217,1167.33 -274.61,1168.43 -276.035,1169.5C-276.709,1170.01 -277.384,1170.52 -278.078,1171.05C-279.848,1172.19 -279.848,1172.19 -281.848,1172.19L-281.848,1174.19C-283.527,1175.48 -283.527,1175.48 -285.723,1176.81C-286.802,1177.48 -286.802,1177.48 -287.902,1178.16C-289.848,1179.19 -289.848,1179.19 -291.848,1179.19L-291.848,1181.19C-293.352,1182.48 -293.352,1182.48 -295.41,1183.94C-319.95,1201.82 -330.829,1232.13 -336.438,1261.25C-338.235,1274.12 -335.582,1283.85 -327.848,1294.19C-326.765,1295.8 -326.765,1295.8 -325.66,1297.44C-321.654,1301.36 -317.009,1303.14 -311.848,1305.19L-311.848,1307.19C-311.146,1307.3 -310.445,1307.4 -309.723,1307.52C-306.486,1308.27 -303.838,1309.49 -300.848,1310.94C-296.387,1313.03 -291.924,1315.05 -287.348,1316.88C-286.409,1317.25 -285.471,1317.62 -284.504,1318.01C-274.251,1321.31 -263.988,1322.83 -253.285,1323.75C-251.917,1323.87 -250.549,1324 -249.181,1324.12C-236.599,1325.24 -223.992,1325.93 -211.377,1326.54C-210.635,1326.58 -209.894,1326.62 -209.131,1326.65C-207.12,1326.75 -205.109,1326.85 -203.099,1326.94C-200.495,1327.14 -198.341,1327.51 -195.848,1328.19C-194.438,1328.35 -193.024,1328.48 -191.609,1328.58C-171.111,1330.25 -148.81,1334.84 -133.848,1350.19C-126.848,1358.58 -126.848,1358.58 -126.848,1364.19L-124.848,1364.19C-121.025,1378.93 -120.73,1396.1 -126.848,1410.19C-127.363,1411.44 -127.877,1412.7 -128.391,1413.96C-134.485,1428.56 -141.799,1442.57 -149.848,1456.19C-150.611,1457.5 -150.611,1457.5 -151.391,1458.84C-152.481,1460.66 -153.653,1462.43 -154.848,1464.19L-156.848,1464.19C-157.075,1464.71 -157.301,1465.24 -157.535,1465.79C-159.296,1469.01 -161.557,1471.77 -163.848,1474.62C-164.843,1475.88 -165.837,1477.14 -166.832,1478.4C-168.722,1480.78 -170.629,1483.15 -172.551,1485.5C-190.182,1507.37 -196.431,1535.48 -194.848,1563.19C-192.631,1581.33 -179.421,1596.85 -165.348,1607.88C-164.615,1608.46 -163.883,1609.04 -163.129,1609.64C-160.76,1611.25 -158.529,1612.2 -155.848,1613.19C-154.491,1613.81 -153.137,1614.43 -151.785,1615.06C-129.379,1624.93 -99.091,1626.23 -75.848,1618.19C-73.915,1617.55 -71.981,1616.91 -70.047,1616.28C-65.871,1614.9 -61.705,1613.5 -57.543,1612.09C-51.895,1610.18 -46.218,1608.51 -40.457,1606.98C-37.871,1606.28 -37.871,1606.28 -35.738,1605.09C-33.848,1604.19 -33.848,1604.19 -29.848,1604.19L-29.848,1602.19C-22.504,1598.43 -22.504,1598.43 -19.348,1597.25C-16.216,1595.92 -13.533,1594.11 -10.715,1592.21C-8.848,1591.19 -8.848,1591.19 -5.848,1591.19L-5.848,1589.19C-3.831,1587.78 -1.835,1586.5 0.277,1585.25C1.132,1584.73 1.132,1584.73 2.004,1584.2C5.638,1582 9.347,1580.06 13.152,1578.19C14.391,1577.53 15.626,1576.87 16.859,1576.21C21.271,1573.83 25.706,1571.5 30.152,1569.19C31.196,1568.64 31.196,1568.64 32.261,1568.09C52.42,1557.68 73.756,1552.73 96.402,1552.62C97.512,1552.62 97.512,1552.62 98.644,1552.61C116.609,1552.59 132.254,1556.8 148.152,1565.19L148.152,1567.19C148.874,1567.46 149.596,1567.72 150.34,1568C159.078,1571.69 166.635,1577.92 174.047,1583.75C176.009,1585.29 177.984,1586.81 179.977,1588.31C180.798,1588.93 181.619,1589.55 182.465,1590.19C183.183,1590.72 183.901,1591.26 184.641,1591.81C185.139,1592.27 185.638,1592.72 186.152,1593.19L186.152,1595.19C186.827,1595.44 187.501,1595.7 188.195,1595.96C191.704,1597.42 195.079,1599.1 198.465,1600.81C199.11,1601.14 199.755,1601.46 200.42,1601.8C201.998,1602.59 203.575,1603.39 205.152,1604.19L205.152,1606.19C205.779,1606.38 206.405,1606.57 207.051,1606.77C207.868,1607.03 208.685,1607.29 209.527,1607.56C210.339,1607.82 211.152,1608.07 211.988,1608.34C214.152,1609.19 214.152,1609.19 216.152,1611.19C218.221,1611.83 218.221,1611.83 220.152,1612.19L220.152,1614.19C221.287,1614.43 222.421,1614.68 223.59,1614.94C229.262,1616.36 234.569,1618.6 239.547,1621.66C255.099,1630.76 272.511,1633.37 290.152,1633.38C292.001,1633.39 292.001,1633.39 293.887,1633.41C300.379,1633.42 305.93,1633.01 312.152,1631.19L316.152,1631.19L316.152,1629.19C318.132,1628.86 320.112,1628.53 322.152,1628.19L322.152,1626.19C324.164,1624.86 324.164,1624.86 326.84,1623.38C334.063,1619.2 334.063,1619.2 338.152,1612.19C339.111,1600.07 337.364,1589.29 334.441,1577.56C333.269,1572.83 332.426,1568.12 331.715,1563.31C330.633,1556.21 329.009,1549.33 327.215,1542.38C319.701,1513.19 312.022,1482.63 328.031,1454.94C331.199,1450.28 331.199,1450.28 333.152,1448.19L335.152,1448.19C335.512,1447.3 335.512,1447.3 335.879,1446.39C337.413,1443.74 338.977,1442.62 341.527,1440.94C342.298,1440.42 343.069,1439.9 343.863,1439.36C346.152,1438.19 346.152,1438.19 350.152,1438.19L350.152,1436.19C368.949,1428.94 388.714,1427.01 408.617,1424.9C432.886,1423.34 432.886,1423.34 455.152,1415.19L458.152,1415.19L458.152,1413.19C459.762,1411.67 459.762,1411.67 461.902,1409.94C464.549,1407.71 466.696,1405.69 468.527,1402.75C469.064,1401.9 469.6,1401.06 470.152,1400.19L472.152,1400.19C472.282,1399.6 472.412,1399.01 472.546,1398.4C473.291,1395.68 474.567,1393.34 475.882,1390.86C480.148,1382.8 483.078,1375.1 485.152,1366.19C485.365,1365.31 485.578,1364.42 485.797,1363.52C487.214,1357.11 487.859,1350.73 488.152,1344.19C488.211,1342.91 488.211,1342.91 488.271,1341.61C488.936,1325.13 488.007,1309.64 479.931,1294.93C479.152,1293.19 479.152,1293.19 479.152,1290.19L477.152,1290.19C476.873,1289.66 476.593,1289.14 476.305,1288.61C471.204,1279.24 465.687,1270.5 458.754,1262.38C457.186,1260.23 456.566,1258.78 456.152,1256.19L454.152,1256.19C446.152,1238.99 446.152,1238.99 446.152,1234.19L444.152,1234.19C443.898,1233.35 443.644,1232.52 443.383,1231.66C443.039,1230.54 442.694,1229.41 442.34,1228.25C442.003,1227.15 441.667,1226.05 441.32,1224.91C440.707,1222.96 440.085,1221 439.388,1219.08C437.416,1213.57 436.452,1208.38 435.965,1202.56C435.846,1201.22 435.846,1201.22 435.726,1199.86C435.168,1192.89 434.945,1185.93 434.902,1178.94C434.893,1178 434.884,1177.06 434.874,1176.09C434.916,1167.04 436.259,1159.85 441.152,1152.19L443.152,1152.19C443.276,1151.42 443.4,1150.66 443.527,1149.88C444.152,1147.19 444.152,1147.19 446.152,1144.19L448.152,1144.19C448.812,1142.54 449.472,1140.89 450.152,1139.19L452.152,1139.19C452.399,1138.63 452.645,1138.08 452.898,1137.51C457.191,1129.56 464.319,1122.79 470.402,1116.18C472.2,1114.3 472.2,1114.3 473.152,1112.19L475.152,1112.19C475.441,1111.42 475.73,1110.66 476.027,1109.88C477.152,1107.19 477.152,1107.19 479.152,1104.19L481.152,1104.19C481.482,1102.54 481.812,1100.89 482.152,1099.19L484.152,1099.19C484.255,1098.49 484.359,1097.79 484.465,1097.06C485.152,1094.19 485.152,1094.19 486.57,1091.36C491.776,1080.91 493.27,1069.5 494.827,1058.07C495.152,1056.19 495.152,1056.19 496.152,1053.19C497.622,1042.16 497.372,1030.9 497.393,1019.8C497.402,1016.66 497.433,1013.51 497.465,1010.37C497.937,983.233 497.937,983.233 489.152,958.188L489.152,954.188L487.152,954.188C485.819,950.854 484.486,947.521 483.152,944.188L481.152,944.188C480.369,942.517 480.369,942.517 479.57,940.813C476.978,935.63 473.74,930.956 470.465,926.188C465.599,919.014 461.023,911.791 456.906,904.162C455.527,901.609 454.162,899.2 452.414,896.879C451.152,895.188 451.152,895.188 451.152,893.188L449.152,893.188C448.649,891.73 448.15,890.272 447.652,888.813C447.374,888 447.095,887.188 446.809,886.352C446.152,884.188 446.152,884.188 446.152,882.188L444.152,882.188C440.805,871.515 438.339,861.642 438.192,850.392C438.148,847.953 438.038,845.52 437.93,843.082C437.581,832.814 438.377,824.225 441.926,814.566C442.933,811.791 443.632,809.265 444.152,806.375C445.271,800.935 447.72,796.148 450.152,791.188C450.704,790.034 451.256,788.88 451.824,787.691C458.776,773.309 458.776,773.309 463.152,768.188L465.152,768.188C465.297,767.569 465.441,766.95 465.59,766.313C466.152,764.188 466.152,764.188 467.152,762.188L469.152,762.188C469.235,761.672 469.317,761.156 469.402,760.625C470.474,757.143 472.288,754.315 474.152,751.188L476.152,751.188C476.332,750.31 476.332,750.31 476.516,749.414C477.174,747.111 478.059,745.577 479.34,743.563C481.985,738.941 483.677,734.16 485.34,729.125C485.59,728.369 485.839,727.614 486.096,726.835C488.495,719.395 490.371,712.04 491.258,704.262C491.342,703.53 491.426,702.798 491.512,702.044C492.365,694.031 492.504,686.052 492.465,678C492.463,676.85 492.463,676.85 492.46,675.677C492.477,639.639 492.477,639.639 481.105,606.043C480.152,604.188 480.152,604.188 480.152,602.188L478.152,602.188C477.146,600.525 476.146,598.858 475.152,597.188C474.162,596.528 473.172,595.867 472.152,595.188L472.152,593.188C471.1,592.899 470.049,592.61 468.965,592.313C465.152,591.188 465.152,591.188 463.07,590.133C458.648,588.7 454.271,588.976 449.652,588.938C440.103,588.697 433.392,587.244 425.152,582.188C423.747,581.41 423.747,581.41 422.313,580.617C421.6,580.145 420.887,579.674 420.152,579.188L420.152,577.188C419.263,576.928 418.373,576.669 417.457,576.402C407.53,572.753 399.682,563.569 395.198,554.193C392.113,546.952 390.15,539.384 388.17,531.786C387.596,529.585 387.009,527.388 386.42,525.191C382.241,509.423 378.976,493.685 378.965,477.313C378.953,476.383 378.94,475.454 378.928,474.496C378.907,464.743 379.937,452.362 386.512,444.578C388.316,442.988 390.204,441.599 392.152,440.188C393.678,438.981 395.203,437.774 396.728,436.566C401.292,432.98 405.901,429.624 410.84,426.563C420.058,420.813 427.437,414.103 434.609,406.02C439.162,400.95 444.1,396.318 449.09,391.688C449.685,391.132 450.28,390.576 450.893,390.004C453.684,387.411 456.491,384.885 459.453,382.488C461.639,380.625 463.014,379.318 464.402,376.875C464.98,375.988 465.557,375.101 466.152,374.188L468.152,374.188C468.235,373.404 468.317,372.62 468.402,371.813C469.219,367.865 470.578,364.464 472.109,360.75C476.948,348.861 479.209,336.294 481.504,323.719C481.857,321.795 482.227,319.873 482.68,317.971C483.294,314.354 483.334,310.783 483.355,307.125C483.362,306.345 483.369,305.564 483.376,304.76C483.393,302.236 483.4,299.712 483.402,297.188C483.404,296.331 483.406,295.475 483.408,294.593C483.416,282.266 482.857,270.339 480.516,258.204C479.917,254.882 479.542,251.54 479.152,248.188L477.152,248.188C476.504,245.959 475.859,243.73 475.215,241.5C474.855,240.259 474.496,239.017 474.125,237.738C473.345,234.891 472.679,232.089 472.152,229.188L470.152,229.188C469.766,228.356 469.379,227.525 468.98,226.668C468.199,225.038 468.199,225.038 467.402,223.375C466.637,221.757 466.637,221.757 465.855,220.105C464.177,217.229 462.837,216.037 460.152,214.188L460.152,212.188C459.272,211.987 459.272,211.987 458.374,211.783C454.929,210.86 451.765,209.283 448.527,207.813C442.497,205.122 436.553,202.854 430.152,201.188C429.018,200.857 427.884,200.528 426.715,200.188C425.539,199.857 424.364,199.528 423.152,199.188C422.424,198.95 421.696,198.713 420.945,198.469C413.31,196.123 405.708,195.403 397.797,194.648C391.87,194.08 386.021,193.185 380.152,192.188C378.856,191.995 377.559,191.803 376.223,191.605C365.237,189.887 354.624,187.06 347.152,178.188C346.389,177.466 345.626,176.744 344.84,176C343.152,174.188 343.152,174.188 343.152,172.188L341.152,172.188C338.438,165.832 336.118,159.355 333.902,152.813C333.632,152.028 333.362,151.243 333.083,150.434C332.833,149.685 332.582,148.936 332.324,148.164C332.098,147.495 331.872,146.825 331.64,146.135C331.152,144.188 331.152,144.188 331.152,140.188L329.152,140.188C328.492,136.888 327.832,133.588 327.152,130.188L325.152,130.188C324.754,129.018 324.356,127.849 323.945,126.645C323.41,125.096 322.875,123.548 322.34,122C322.079,121.231 321.818,120.462 321.549,119.67C320.101,115.504 318.443,111.97 316.152,108.188C315.538,105.501 315.386,102.947 315.152,100.188L313.152,100.188C312.822,97.548 312.492,94.908 312.152,92.188L310.152,92.188C309.933,91.582 309.714,90.976 309.488,90.352C307.017,83.823 303.867,78.082 300.152,72.188C299.431,70.946 299.431,70.946 298.695,69.68C290.555,56.531 274.207,43.932 259.109,40.027C257.73,39.716 256.349,39.416 254.965,39.125C253.851,38.878 253.851,38.878 252.714,38.625C251.218,38.293 249.722,37.964 248.224,37.64C245.4,37.023 242.59,36.354 239.777,35.688C222.133,31.34 222.133,31.34 204.152,29.188C203.026,29.113 201.899,29.038 200.738,28.961C189.094,28.518 174.06,29.582 164.152,36.188C162.642,36.642 161.119,37.054 159.59,37.438C154.562,38.862 150.547,41.143 146.184,43.98C144.152,45.188 144.152,45.188 142.152,45.188L142.152,47.188C131.038,52.816 120.406,57.688 108.152,60.188C107.446,60.337 106.74,60.487 106.012,60.641C104.041,60.966 102.15,61.105 100.152,61.188C98.972,61.239 97.791,61.291 96.574,61.344C83.395,61.73 72.13,59.994 61.152,52.188C60.121,51.466 59.09,50.744 58.027,50C53.614,46.135 50.489,40.962 47.152,36.188C43.805,31.468 40.787,27.731 36.152,24.188L36.152,22.188C35.389,21.899 34.626,21.61 33.84,21.313C31.152,20.188 31.152,20.188 28.152,18.188L28.152,16.188C27.472,16.105 26.791,16.023 26.09,15.938C23.152,15.188 23.152,15.188 20.09,13.313C13.223,9.228 4.949,7.341 -2.953,8.68C-12.318,11.19 -18.731,21.329 -23.71,29.136C-26.81,34.726 -28.326,41.019 -29.848,47.188L-31.848,47.188C-32.075,48.425 -32.301,49.663 -32.535,50.938C-34.415,59.345 -26.849,77.764 -32.848,84.188C-35.66,84.688 -27.873,81.532 -38.305,78.613C-36.88,72.11 -41.858,71.813 -39.142,66.784C-39.459,61.008 -41.588,53.701 -39.904,49.365C-38.928,46.861 -37.958,44.403 -36.727,42.012C-35.738,39.961 -35.362,38.114 -34.973,35.875C-34.041,31.335 -32.332,28.08 -29.848,24.188L-27.848,24.188C-27.784,23.656 -27.721,23.125 -27.656,22.578C-26.489,19.128 -24.238,16.668 -21.91,13.938C-21.454,13.383 -20.999,12.829 -20.529,12.258C-19.352,10.858 -18.104,9.517 -16.848,8.188L-14.848,8.188L-14.848,6.188C-10.191,2.478 -5.866,0.595 0,0Z" style="fill:rgb(14,14,14);fill-rule:nonzero;"/>
    </g>
    <g transform="matrix(1.10143,0,0,1.14242,726.681,1902.19)">
        <path d="M0,0C0.887,0.124 1.774,0.248 2.688,0.375C3.672,0.51 3.672,0.51 4.676,0.648C6.283,0.891 7.884,1.17 9.48,1.477C21.21,3.598 33.112,3.658 45,4C44.34,6.31 43.68,8.62 43,11C39.09,11.075 35.18,11.129 31.269,11.165C29.3,11.187 27.332,11.225 25.363,11.264C16.108,11.334 6.646,11.127 -1.25,5.813C-1.827,5.214 -2.405,4.616 -3,4C-2.01,3.34 -1.02,2.68 0,2L0,0Z" style="fill:rgb(7,7,7);fill-rule:nonzero;"/>
    </g>
    <g transform="matrix(1.10143,0,0,1.14242,75.7348,1466.92)">
        <path d="M0,0C0.19,4.558 -0.25,8.043 -1.488,12.469C-2.647,18.201 -2.711,24.166 -3,30C-3.99,30.33 -4.98,30.66 -6,31C-6.33,31.66 -6.66,32.32 -7,33L-9,33C-12.766,25.467 -10.241,9.599 -8,2C-4.772,-0.152 -3.716,-0.201 0,0Z" style="fill:rgb(8,8,8);fill-rule:nonzero;"/>
    </g>
    <g transform="matrix(1.10143,0,0,1.14242,408.367,128.002)">
        <path d="M0,0L0,7L-2,7C-2.433,7.897 -2.433,7.897 -2.875,8.813C-5.684,14.275 -8.293,15.208 -13.891,17.148C-18.557,18.427 -23.179,18.813 -28,19C-26.609,14.307 -26.609,14.307 -25,12C-22.212,11.071 -19.848,10.499 -17,10C-11.46,8.185 -8.777,6.047 -5.457,1.426C-4,0 -4,0 0,0Z" style="fill:rgb(16,16,16);fill-rule:nonzero;"/>
    </g>
    <g transform="matrix(1.10143,0,0,1.14242,818.1,1858.78)">
        <path d="M0,0C2.375,0.313 2.375,0.313 5,1C8.588,6.382 7.331,13.517 6.5,19.75C6.335,20.493 6.17,21.235 6,22L4,22C3.34,22.99 2.68,23.98 2,25C1.01,24.34 0.02,23.68 -1,23C-1.249,20.662 -1.249,20.662 -1.074,17.773C-1.019,16.742 -0.965,15.711 -0.908,14.648C-0.835,13.568 -0.763,12.488 -0.688,11.375C-0.626,10.287 -0.565,9.199 -0.502,8.078C-0.348,5.384 -0.18,2.692 0,0Z" style="fill:rgb(5,5,5);fill-rule:nonzero;"/>
    </g>
    <g transform="matrix(1.10143,0,0,1.14242,186.979,131.429)">
        <path d="M0,0C0,3.654 -0.889,5.06 -3,8C-5,9.125 -5,9.125 -7,10C-8.921,11.625 -9.924,12.838 -11,15.125C-12,17 -12,17 -15,18L-15,21L-17,21C-18.106,23.391 -18.106,23.391 -19,26C-18.67,26.66 -18.34,27.32 -18,28C-22.625,31 -22.625,31 -26,31C-24.441,26.165 -21.68,22.668 -18.563,18.75C-18.072,18.113 -17.582,17.476 -17.076,16.82C-13.375,12.125 -13.375,12.125 -10,11C-9.67,10.01 -9.34,9.02 -9,8C-7.52,6.713 -6.035,5.428 -4.5,4.207C-2.883,2.906 -1.427,1.506 0,0Z" style="fill:rgb(214,214,214);fill-rule:nonzero;"/>
    </g>
    <g transform="matrix(1.10143,0,0,1.14242,108.778,1383.53)">
        <path d="M0,0C0.66,0.33 1.32,0.66 2,1C0.625,3.5 0.625,3.5 -1,6L-3,6L-3,8C-4.496,9.438 -4.496,9.438 -6.438,11C-9.152,13.145 -9.152,13.145 -11,16L-13,16C-13.66,17.32 -14.32,18.64 -15,20C-15.99,19.34 -16.98,18.68 -18,18C-16.188,15 -16.188,15 -14,12L-11,12C-10.753,11.443 -10.505,10.886 -10.25,10.313C-7.714,5.622 -4.867,2.305 0,0Z" style="fill:rgb(244,244,244);fill-rule:nonzero;"/>
    </g>
    <g transform="matrix(1.10143,0,0,1.14242,147.328,659.229)">
        <path d="M0,0L4,0C4.027,1.604 4.046,3.208 4.063,4.813C4.074,5.706 4.086,6.599 4.098,7.52C4,10 4,10 3,13C2.01,13.33 1.02,13.66 0,14C-2.603,11.288 -2.995,10.109 -3.188,6.25C-3.126,5.178 -3.064,4.105 -3,3C-2.01,2.67 -1.02,2.34 0,2L0,0Z" style="fill:rgb(2,2,2);fill-rule:nonzero;"/>
    </g>
    <g transform="matrix(1.10143,0,0,1.14242,115.386,1009.95)">
        <path d="M0,0L4,0C2.465,3.807 0.135,5.896 -2.938,8.563C-7.074,12.169 -7.074,12.169 -11,16C-11.66,15.67 -12.32,15.34 -13,15C-12.67,13.68 -12.34,12.36 -12,11L-9,11L-9,9L-7,9C-6.711,8.216 -6.423,7.433 -6.125,6.625C-5,4 -5,4 -3,2L0,2L0,0Z" style="fill:rgb(242,242,242);fill-rule:nonzero;"/>
    </g>
    <g transform="matrix(1.10143,0,0,1.14242,117.589,1391.52)">
        <path d="M0,0C0.66,0.33 1.32,0.66 2,1C-0.28,4.99 -2.322,7.386 -6.125,10C-9.754,12.55 -11.146,14.518 -12,19C-14.31,19.33 -16.62,19.66 -19,20C-18.05,18.661 -17.089,17.329 -16.125,16C-15.324,14.886 -15.324,14.886 -14.508,13.75C-14.01,13.173 -13.513,12.595 -13,12L-11,12C-10.67,11.01 -10.34,10.02 -10,9L-8,9C-7.794,8.443 -7.588,7.886 -7.375,7.313C-5.45,4.075 -2.961,2.318 0,0Z" style="fill:rgb(213,213,213);fill-rule:nonzero;"/>
    </g>
    <g transform="matrix(1.10143,0,0,1.14242,922.736,516.426)">
        <path d="M0,0C0.66,1.32 1.32,2.64 2,4C0.026,6.523 -0.967,6.993 -4.188,7.688C-5.58,7.842 -5.58,7.842 -7,8C-7.085,8.616 -7.17,9.232 -7.258,9.867C-8,12 -8,12 -9.742,13.195C-10.446,13.502 -11.15,13.809 -11.875,14.125C-14.485,15.29 -16.593,16.396 -19,18L-19,15C-16.804,13.247 -14.644,11.676 -12.313,10.125C-7.757,7.057 -3.764,4.016 0,0Z" style="fill:rgb(217,217,217);fill-rule:nonzero;"/>
    </g>
    <g transform="matrix(1.10143,0,0,1.14242,821.405,1882.77)">
        <path d="M0,0C0.99,0.33 1.98,0.66 3,1C1.814,4.375 0.724,6.647 -2,9C-2.99,7.68 -3.98,6.36 -5,5C-5.743,5.949 -6.485,6.898 -7.25,7.875C-9.308,10.359 -10.986,11.753 -14,13C-14.66,13.66 -15.32,14.32 -16,15L-16,13C-16.66,12.67 -17.32,12.34 -18,12C-17.397,11.613 -16.793,11.227 -16.172,10.828C-11.127,7.571 -11.127,7.571 -6.688,3.563C-6.131,3.047 -5.574,2.531 -5,2C-2.75,2.25 -2.75,2.25 -1,3C-0.67,2.01 -0.34,1.02 0,0Z" style="fill:rgb(11,11,11);fill-rule:nonzero;"/>
    </g>
    <g transform="matrix(1.10143,0,0,1.14242,34.9818,788.323)">
        <path d="M0,0C3,1 3,1 4.027,2.891C4.328,3.669 4.628,4.448 4.938,5.25C6.498,9.028 8.235,11.939 11,15C10.67,15.66 10.34,16.32 10,17C5.16,14.967 3.21,11.628 1,7C0.378,4.596 0.156,2.494 0,0Z" style="fill:rgb(232,232,232);fill-rule:nonzero;"/>
    </g>
    <g transform="matrix(1.10143,0,0,1.14242,299.326,1632.58)">
        <path d="M0,0C1.327,3.982 -0.001,6.448 -1.438,10.188C-1.68,10.842 -1.923,11.496 -2.174,12.17C-2.774,13.783 -3.386,15.392 -4,17C-4.99,16.67 -5.98,16.34 -7,16C-6.691,14.969 -6.381,13.938 -6.063,12.875C-5.125,9.61 -4.492,6.364 -4,3C-2.68,2.67 -1.36,2.34 0,2L0,0Z" style="fill:rgb(232,232,232);fill-rule:nonzero;"/>
    </g>
    <g transform="matrix(1.10143,0,0,1.14242,101.068,1041.94)">
        <path d="M0,0C1,2 1,2 0.25,4.438C-0.967,6.933 -2.034,8.113 -4,10C-4.474,10.804 -4.949,11.609 -5.438,12.438C-7.028,15.046 -8.772,16.926 -11,19C-11.66,18.34 -12.32,17.68 -13,17C-11.383,14.661 -9.757,12.329 -8.125,10C-7.665,9.332 -7.205,8.665 -6.73,7.977C-5.537,6.281 -4.273,4.636 -3,3L-1,3C-0.67,2.01 -0.34,1.02 0,0Z" style="fill:rgb(216,216,216);fill-rule:nonzero;"/>
    </g>
    <g transform="matrix(1.10143,0,0,1.14242,712.363,68.5956)">
        <path d="M0,0C3.96,0.33 7.92,0.66 12,1C12.33,2.65 12.66,4.3 13,6C8.38,5.01 3.76,4.02 -1,3C-0.67,2.01 -0.34,1.02 0,0Z" style="fill:rgb(236,236,236);fill-rule:nonzero;"/>
    </g>
    <g transform="matrix(1.10143,0,0,1.14242,261.877,1726.25)">
        <path d="M0,0C0.66,0.99 1.32,1.98 2,3C-0.123,7.135 -2.049,8.687 -6,11C-8.275,13.572 -8.275,13.572 -10,16C-10.66,15.67 -11.32,15.34 -12,15C-8.04,10.05 -4.08,5.1 0,0Z" style="fill:rgb(227,227,227);fill-rule:nonzero;"/>
    </g>
    <g transform="matrix(1.10143,0,0,1.14242,65.8219,1135.62)">
        <path d="M0,0C0.66,0.33 1.32,0.66 2,1L2,9L-2,9L-2,11L-4,11C-4.492,4.6 -4.492,4.6 -2,1.563C-1.34,1.047 -0.68,0.531 0,0Z" style="fill:rgb(4,4,4);fill-rule:nonzero;"/>
    </g>
    <g transform="matrix(1.10143,0,0,1.14242,898.505,535.847)">
        <path d="M0,0C0.66,0.33 1.32,0.66 2,1C1.457,1.447 0.915,1.895 0.355,2.355C-4.219,6.184 -4.219,6.184 -7.75,10.938C-8.162,11.618 -8.575,12.299 -9,13C-13,13 -13,13 -16,12C-14.713,10.994 -13.42,9.996 -12.125,9C-11.406,8.443 -10.686,7.886 -9.945,7.313C-8,6 -8,6 -6,6L-6,4C-4.039,2.611 -2.038,1.274 0,0Z" style="fill:rgb(212,212,212);fill-rule:nonzero;"/>
    </g>
    <g transform="matrix(1.10143,0,0,1.14242,168.255,153.135)">
        <path d="M0,0C0.66,0.66 1.32,1.32 2,2L0,2C-1.106,4.391 -1.106,4.391 -2,7C-1.67,7.66 -1.34,8.32 -1,9C-5.625,12 -5.625,12 -9,12C-7.509,7.393 -5.215,4.536 -2,1C-1.34,0.67 -0.68,0.34 0,0Z" style="fill:rgb(226,226,226);fill-rule:nonzero;"/>
    </g>
    <g transform="matrix(1.10143,0,0,1.14242,406.165,135.999)">
        <path d="M0,0C0.99,0.33 1.98,0.66 3,1C2.01,1.495 2.01,1.495 1,2C0.283,3.982 -0.383,5.984 -1,8C-1.33,8.66 -1.66,9.32 -2,10C-4.314,10.731 -6.648,11.401 -9,12C-9.33,11.34 -9.66,10.68 -10,10C-10.66,9.67 -11.32,9.34 -12,9C-8.912,7.235 -7.767,7 -4,7C-3.711,6.402 -3.423,5.804 -3.125,5.188C-2,3 -2,3 0,0Z" style="fill:rgb(216,216,216);fill-rule:nonzero;"/>
    </g>
    <g transform="matrix(1.10143,0,0,1.14242,83.4448,1442.93)">
        <path d="M0,0C2.125,3.801 2.045,5.731 1,10C0.125,12.813 0.125,12.813 -1,15C-1.99,15.33 -2.98,15.66 -4,16C-3.399,10.35 -1.925,5.338 0,0Z" style="fill:rgb(228,228,228);fill-rule:nonzero;"/>
    </g>
    <g transform="matrix(1.10143,0,0,1.14242,948.069,947.12)">
        <path d="M0,0L2,0L2,6L0,6C-0.062,6.908 -0.124,7.815 -0.188,8.75C-1.184,12.738 -2.649,13.766 -6,16C-4.436,10.386 -2.836,5.132 0,0Z" style="fill:rgb(219,219,219);fill-rule:nonzero;"/>
    </g>
    <g transform="matrix(1.10143,0,0,1.14242,92.2563,703.784)">
        <path d="M0,0C0.66,0.33 1.32,0.66 2,1C1.01,2.32 0.02,3.64 -1,5C-0.01,5.33 0.98,5.66 2,6L2,9C0.02,9.66 -1.96,10.32 -4,11C-3.67,9.35 -3.34,7.7 -3,6C-4.65,5.67 -6.3,5.34 -8,5C-5.454,2.999 -3.02,1.208 0,0Z" style="fill:rgb(41,41,41);fill-rule:nonzero;"/>
    </g>
    <g transform="matrix(1.10143,0,0,1.14242,910.621,252.526)">
        <path d="M0,0C-0.33,0.66 -0.66,1.32 -1,2C-0.34,2.66 0.32,3.32 1,4C-5.6,3.34 -12.2,2.68 -19,2L-19,1C-12.626,0.038 -6.441,-0.107 0,0Z" style="fill:rgb(225,225,225);fill-rule:nonzero;"/>
    </g>
    <g transform="matrix(1.10143,0,0,1.14242,113.184,589.541)">
        <path d="M0,0C2.31,0.66 4.62,1.32 7,2C6.979,2.949 6.959,3.898 6.938,4.875C6.774,7.907 6.774,7.907 8,10C4.059,8.332 1.211,5.773 -2,3C-1.34,2.67 -0.68,2.34 0,2L0,0Z" style="fill:rgb(223,223,223);fill-rule:nonzero;"/>
    </g>
    <g transform="matrix(1.10143,0,0,1.14242,935.954,1418.94)">
        <path d="M0,0C0.99,0.33 1.98,0.66 3,1C3.66,5.29 4.32,9.58 5,14L2,14C1.467,12.421 0.949,10.836 0.438,9.25C0.147,8.368 -0.143,7.487 -0.441,6.578C-1.017,3.922 -0.892,2.53 0,0Z" style="fill:rgb(242,242,242);fill-rule:nonzero;"/>
    </g>
    <g transform="matrix(1.10143,0,0,1.14242,133.009,1368.67)">
        <path d="M0,0C0.66,0.33 1.32,0.66 2,1C0.115,2.825 -1.782,4.634 -3.688,6.438C-4.483,7.212 -4.483,7.212 -5.295,8.002C-8.418,10.934 -10.663,12.686 -15,13L-15,11C-13.11,9.62 -11.161,8.32 -9.188,7.063C-4.249,3.951 -4.249,3.951 0,0Z" style="fill:rgb(43,43,43);fill-rule:nonzero;"/>
    </g>
    <g transform="matrix(1.10143,0,0,1.14242,153.937,960.829)">
        <path d="M0,0L2,0C1.649,0.908 1.299,1.815 0.938,2.75C-0.246,5.807 -0.246,5.807 0.563,8.125C1,10 1,10 -0.25,12.25C-0.828,12.828 -1.405,13.405 -2,14L-5,14C-3.457,9.279 -1.922,4.583 0,0Z" style="fill:rgb(218,218,218);fill-rule:nonzero;"/>
    </g>
    <g transform="matrix(1.10143,0,0,1.14242,123.096,1551.46)">
        <path d="M0,0C1.679,0.634 3.35,1.293 5,2L5,5C1.37,4.67 -2.26,4.34 -6,4C-6.33,2.68 -6.66,1.36 -7,0C-4.27,-1.365 -2.928,-0.749 0,0Z" style="fill:rgb(240,240,240);fill-rule:nonzero;"/>
    </g>
    <g transform="matrix(1.10143,0,0,1.14242,593.408,78.8775)">
        <path d="M0,0C2.475,0.99 2.475,0.99 5,2C4.813,3.875 4.813,3.875 4,6C1.438,7.25 1.438,7.25 -1,8C-1.66,7.34 -2.32,6.68 -3,6C-2.625,3.875 -2.625,3.875 -2,2L0,2L0,0Z" style="fill:rgb(243,243,243);fill-rule:nonzero;"/>
    </g>
    <g transform="matrix(1.10143,0,0,1.14242,934.852,1661.14)">
        <path d="M0,0L0,-2C1.32,-1.67 2.64,-1.34 4,-1C1.077,0.949 -0.511,1.481 -3.875,2.125C-4.718,2.293 -5.561,2.46 -6.43,2.633C-8.992,2.999 -11.416,3.065 -14,3C-11,1 -11,1 -9,1L-9,-1C-5.207,-2.264 -3.707,-1.236 0,0Z" style="fill:rgb(224,224,224);fill-rule:nonzero;"/>
    </g>
    <g transform="matrix(1.10143,0,0,1.14242,981.112,749.481)">
        <path d="M0,0C3.252,4.878 3.113,9.224 3,15C-0.875,13.25 -0.875,13.25 -2,11C-2.134,8.328 -2.043,5.677 -2,3C-1.01,4.485 -1.01,4.485 0,6L0,0Z" style="fill:rgb(212,212,212);fill-rule:nonzero;"/>
    </g>
    <g transform="matrix(1.10143,0,0,1.14242,632.44,77.5208)">
        <path d="M0,0C3.563,0.188 3.563,0.188 5.563,2.188C4.563,3.188 4.563,3.188 2.188,3.25C1.321,3.229 0.455,3.209 -0.438,3.188L-3.438,3.188L-3.438,5.188L-14.438,5.188C-11.151,2.997 -8.219,2.238 -4.438,1.188C-3.438,0.188 -3.438,0.188 0,0Z" style="fill:rgb(209,209,209);fill-rule:nonzero;"/>
    </g>
    <g transform="matrix(1.10143,0,0,1.14242,296.021,1669.13)">
        <path d="M0,0C0.99,0.33 1.98,0.66 3,1C2,4 2,4 -0.125,6.5C-1.053,7.738 -1.053,7.738 -2,9C-1.67,9.99 -1.34,10.98 -1,12C-2.65,12.66 -4.3,13.32 -6,14C-4.508,9.028 -2.395,4.582 0,0Z" style="fill:rgb(211,211,211);fill-rule:nonzero;"/>
    </g>
    <g transform="matrix(1.10143,0,0,1.14242,954.678,701.499)">
        <path d="M0,0C2.64,0.33 5.28,0.66 8,1C8.66,2.65 9.32,4.3 10,6C5.71,5.01 1.42,4.02 -3,3C-2.01,2.67 -1.02,2.34 0,2L0,0Z" style="fill:rgb(241,241,241);fill-rule:nonzero;"/>
    </g>
    <g transform="matrix(1.10143,0,0,1.14242,61.4162,427.317)">
        <path d="M0,0C0.66,0.33 1.32,0.66 2,1C0.515,2.485 0.515,2.485 -1,4C-1.66,3.67 -2.32,3.34 -3,3C-3.33,3.99 -3.66,4.98 -4,6C-7.444,9 -7.444,9 -10,9C-10.99,10.485 -10.99,10.485 -12,12L-12,10C-12.66,9.67 -13.32,9.34 -14,9C-11.714,7.469 -9.422,5.95 -7.125,4.438C-6.149,3.781 -6.149,3.781 -5.152,3.111C-3.474,2.012 -1.74,0.999 0,0Z" style="fill:rgb(211,211,211);fill-rule:nonzero;"/>
    </g>
    <g transform="matrix(1.10143,0,0,1.14242,805.985,1806.22)">
        <path d="M0,0C2.024,3.035 2.321,4.194 2.625,7.688C2.7,8.496 2.775,9.304 2.852,10.137C2.925,11.059 2.925,11.059 3,12C1.02,12.99 1.02,12.99 -1,14C-1.66,13.01 -2.32,12.02 -3,11C-2.67,10.01 -2.34,9.02 -2,8L1,8C0.67,5.36 0.34,2.72 0,0Z" style="fill:rgb(214,214,214);fill-rule:nonzero;"/>
    </g>
    <g transform="matrix(1.10143,0,0,1.14242,816.999,1688.55)">
        <path d="M0,0L2,0C1.398,2.02 0.727,4.021 0,6C-0.99,6.495 -0.99,6.495 -2,7C-2.66,7.66 -6,11 -7,12C-7.66,11.67 -8.32,11.34 -9,11C-7.726,8.962 -6.389,6.961 -5,5L-3,5C-2.691,4.361 -2.381,3.721 -2.063,3.063C-1,1 -1,1 0,0Z" style="fill:rgb(42,42,42);fill-rule:nonzero;"/>
    </g>
    <g transform="matrix(1.10143,0,0,1.14242,150.632,1365.25)">
        <path d="M0,0C0.99,0.33 1.98,0.66 3,1C1,4 1,4 -1.375,5.375C-4.324,7.2 -5.969,9.217 -8,12C-9.32,11.34 -10.64,10.68 -12,10C-10.546,8.828 -9.087,7.662 -7.625,6.5C-6.407,5.525 -6.407,5.525 -5.164,4.531C-3,3 -3,3 -1,3C-0.67,2.01 -0.34,1.02 0,0Z" style="fill:rgb(216,216,216);fill-rule:nonzero;"/>
    </g>
    <g transform="matrix(1.10143,0,0,1.14242,109.879,1032.8)">
        <path d="M0,0C0.66,1.32 1.32,2.64 2,4C-1.625,8.875 -1.625,8.875 -5,10L-5,8C-5.66,7.67 -6.32,7.34 -7,7C-4.69,4.69 -2.38,2.38 0,0Z" style="fill:rgb(225,225,225);fill-rule:nonzero;"/>
    </g>
    <g transform="matrix(1.10143,0,0,1.14242,81.242,405.611)">
        <path d="M0,0C0.99,0.33 1.98,0.66 3,1C1.605,3.791 -0.014,4.039 -2.875,5.188C-3.759,5.552 -4.644,5.917 -5.555,6.293C-8,7 -8,7 -11,6C-9.875,4.063 -9.875,4.063 -8,2C-4.938,1.313 -4.938,1.313 -2,1C-1.34,0.67 -0.68,0.34 0,0Z" style="fill:rgb(240,240,240);fill-rule:nonzero;"/>
    </g>
    <g transform="matrix(1.10143,0,0,1.14242,126.401,698.072)">
        <path d="M0,0C0.66,0.33 1.32,0.66 2,1C1.188,2.938 1.188,2.938 0,5C-0.99,5.33 -1.98,5.66 -3,6C-3.33,6.33 -3.66,6.66 -4,7C-6.339,6.713 -8.674,6.381 -11,6C-8.361,4.586 -5.929,3.628 -3,3L-3,1C-2.01,0.67 -1.02,0.34 0,0Z" style="fill:rgb(232,232,232);fill-rule:nonzero;"/>
    </g>
    <g transform="matrix(1.10143,0,0,1.14242,918.331,269.662)">
        <path d="M0,0C1.606,0.283 3.21,0.577 4.813,0.875C6.152,1.119 6.152,1.119 7.52,1.367C10,2 10,2 13,4C11,5.25 11,5.25 8,6C5.147,4.977 2.594,3.558 0,2L0,0Z" style="fill:rgb(230,230,230);fill-rule:nonzero;"/>
    </g>
    <g transform="matrix(1.10143,0,0,1.14242,79.0391,720.92)">
        <path d="M0,0C0.66,0.33 1.32,0.66 2,1C0.366,2.708 -0.869,3.935 -3,5C-3.33,5.99 -3.66,6.98 -4,8C-6.375,8.625 -6.375,8.625 -9,9C-9.66,8.34 -10.32,7.68 -11,7C-6.25,4 -6.25,4 -4,4L-4,2C-2.125,0.938 -2.125,0.938 0,0Z" style="fill:rgb(220,220,220);fill-rule:nonzero;"/>
    </g>
    <g transform="matrix(1.10143,0,0,1.14242,934.852,491.293)">
        <path d="M0,0C0,4.601 -2.898,6.807 -6,10C-7.947,11.758 -9.935,13.378 -12,15C-12.66,14.67 -13.32,14.34 -14,14C-9.619,8.897 -5.324,4.126 0,0Z" style="fill:rgb(47,47,47);fill-rule:nonzero;"/>
    </g>
    <g transform="matrix(1.10143,0,0,1.14242,623.147,68.5956)">
        <path d="M0,0C-0.33,1.32 -0.66,2.64 -1,4C-3.64,4.66 -6.28,5.32 -9,6C-9.33,5.01 -9.66,4.02 -10,3C-3.375,0 -3.375,0 0,0Z" style="fill:rgb(240,240,240);fill-rule:nonzero;"/>
    </g>
    <g transform="matrix(1.10143,0,0,1.14242,118.691,1023.66)">
        <path d="M0,0C0.688,1.688 0.688,1.688 1,4C-0.25,6.688 -0.25,6.688 -2,9C-2.99,9.33 -3.98,9.66 -5,10L-5,8C-5.66,7.67 -6.32,7.34 -7,7C-5.71,5.624 -4.373,4.292 -3,3L-1,3C-0.67,2.01 -0.34,1.02 0,0Z" style="fill:rgb(223,223,223);fill-rule:nonzero;"/>
    </g>
    <g transform="matrix(1.10143,0,0,1.14242,989.924,864.866)">
        <path d="M0,0C0.99,0.66 1.98,1.32 3,2C2.258,3.114 2.258,3.114 1.5,4.25C-0.319,7.063 -0.319,7.063 0,11C-0.99,11.495 -0.99,11.495 -2,12C-1.67,12.66 -1.34,13.32 -1,14C-2.98,14.99 -2.98,14.99 -5,16C-3.411,10.639 -1.81,5.292 0,0Z" style="fill:rgb(210,210,210);fill-rule:nonzero;"/>
    </g>
    <g transform="matrix(1.10143,0,0,1.14242,946.968,491.293)">
        <path d="M0,0C0.66,0.33 1.32,0.66 2,1C1.277,1.688 1.277,1.688 0.539,2.391C-0.093,3.004 -0.724,3.618 -1.375,4.25C-2.001,4.853 -2.628,5.457 -3.273,6.078C-4.973,7.97 -5.985,9.682 -7,12C-10,12 -10,12 -12,11C-8.04,7.37 -4.08,3.74 0,0Z" style="fill:rgb(205,205,205);fill-rule:nonzero;"/>
    </g>
    <g transform="matrix(1.10143,0,0,1.14242,471.149,57.1714)">
        <path d="M0,0C1.32,0.33 2.64,0.66 4,1L4,3C6.475,3.99 6.475,3.99 9,5C8.67,5.99 8.34,6.98 8,8L5,8C4.67,7.34 4.34,6.68 4,6C1.983,4.866 1.983,4.866 0,4L0,0Z" style="fill:rgb(237,237,237);fill-rule:nonzero;"/>
    </g>
    <g transform="matrix(1.10143,0,0,1.14242,319.405,1890.65)">
        <path d="M0,0C1.204,0.005 1.204,0.005 2.432,0.01C3.682,0.022 3.682,0.022 4.957,0.035C5.802,0.04 6.647,0.044 7.518,0.049C9.602,0.061 11.686,0.079 13.77,0.098L13.77,1.098C12.84,1.158 11.911,1.219 10.953,1.281C1.828,1.893 1.828,1.893 -7.23,3.098L-7.23,1.098C-4.465,0.176 -2.848,-0.02 0,0Z" style="fill:rgb(241,241,241);fill-rule:nonzero;"/>
    </g>
    <g transform="matrix(1.10143,0,0,1.14242,270.688,1575.45)">
        <path d="M0,0C2.972,1.125 5.334,2.223 8,4L8,7C6.35,6.67 4.7,6.34 3,6L3,4L0,4L0,0Z" style="fill:rgb(229,229,229);fill-rule:nonzero;"/>
    </g>
    <g transform="matrix(1.10143,0,0,1.14242,75.7348,1080.78)">
        <path d="M0,0L1,0L1,9C0.01,9.495 0.01,9.495 -1,10C-1.903,11.883 -1.903,11.883 -2.625,14.063C-2.885,14.796 -3.146,15.529 -3.414,16.285C-3.607,16.851 -3.801,17.417 -4,18C-5.358,13.926 -3.947,11.185 -2.563,7.313C-2.32,6.611 -2.077,5.909 -1.826,5.186C-1.226,3.454 -0.614,1.727 0,0Z" style="fill:rgb(197,197,197);fill-rule:nonzero;"/>
    </g>
    <g transform="matrix(1.10143,0,0,1.14242,464.54,1849.64)">
        <path d="M0,0L0,5C-3.508,6.604 -6.144,7.22 -10,7C-8.659,4.317 -7.061,3.779 -4.438,2.375C-3.611,1.929 -2.785,1.483 -1.934,1.023C-1.296,0.686 -0.657,0.348 0,0Z" style="fill:rgb(204,204,204);fill-rule:nonzero;"/>
    </g>
    <g transform="matrix(1.10143,0,0,1.14242,102.169,1542.18)">
        <path d="M0,0C3,1.125 3,1.125 5,2.125L5,5.125C2.36,4.465 -0.28,3.805 -3,3.125L-3,1.125C-3.66,0.795 -4.32,0.465 -5,0.125C-3,-0.875 -3,-0.875 0,0Z" style="fill:rgb(241,241,241);fill-rule:nonzero;"/>
    </g>
    <g transform="matrix(1.10143,0,0,1.14242,952.475,1466.92)">
        <path d="M0,0C1.98,0.99 1.98,0.99 4,2L4,5C4.66,5.33 5.32,5.66 6,6L6,11C5.67,10.34 5.34,9.68 5,9L3,9C0,3.375 0,3.375 0,0Z" style="fill:rgb(229,229,229);fill-rule:nonzero;"/>
    </g>
    <g transform="matrix(1.10143,0,0,1.14242,43.7933,541.559)">
        <path d="M0,0C1.75,0.063 1.75,0.063 4,1C5.595,3.242 6.745,5.536 8,8C6.68,8.33 5.36,8.66 4,9C3.67,7.68 3.34,6.36 3,5L1,5C0.67,3.35 0.34,1.7 0,0Z" style="fill:rgb(229,229,229);fill-rule:nonzero;"/>
    </g>
    <g transform="matrix(1.10143,0,0,1.14242,922.736,516.426)">
        <path d="M0,0C0.66,1.32 1.32,2.64 2,4C-0.204,6.534 -1.711,7.402 -5,8C-6.114,8.278 -8.405,8.851 -9,9C-6,6 -3,3 0,0Z" style="fill:rgb(203,203,203);fill-rule:nonzero;"/>
    </g>
    <g transform="matrix(1.10143,0,0,1.14242,892.516,262.594)">
        <path d="M0,0C1.394,-0.021 1.394,-0.021 2.816,-0.043C5.438,0.188 5.438,0.188 9.438,2.188L-3.563,2.188C-3.233,2.848 -2.903,3.507 -2.563,4.188C-5.491,3.56 -7.923,2.601 -10.563,1.188C-6.994,0.378 -3.658,0.025 0,0Z" style="fill:rgb(213,213,213);fill-rule:nonzero;"/>
    </g>
    <g transform="matrix(1.10143,0,0,1.14242,403.962,128.002)">
        <path d="M0,0L4,0L4,7C2.02,7.33 0.04,7.66 -2,8C-1.67,7.237 -1.34,6.474 -1,5.688C0.174,3.009 0.174,3.009 0,0Z" style="fill:rgb(22,22,22);fill-rule:nonzero;"/>
    </g>
    <g transform="matrix(1.10143,0,0,1.14242,434.802,1867.91)">
        <path d="M0,0C0.66,0.33 1.32,0.66 2,1C2.625,3.563 2.625,3.563 3,6C1.35,5.67 -0.3,5.34 -2,5C-2.33,5.66 -2.66,6.32 -3,7C-3.66,5.68 -4.32,4.36 -5,3C-2.625,1.438 -2.625,1.438 0,0Z" style="fill:rgb(229,229,229);fill-rule:nonzero;"/>
    </g>
    <g transform="matrix(1.10143,0,0,1.14242,594.51,1831.36)">
        <path d="M0,0C1.32,0.33 2.64,0.66 4,1L4,3C4.763,3.289 5.526,3.578 6.313,3.875C9,5 9,5 12,7C9.625,7.625 9.625,7.625 7,8C6.34,7.34 5.68,6.68 5,6C4.01,5.67 3.02,5.34 2,5L2,2L0,2L0,0Z" style="fill:rgb(220,220,220);fill-rule:nonzero;"/>
    </g>
    <g transform="matrix(1.10143,0,0,1.14242,992.127,1286.42)">
        <path d="M0,0C0.33,0.99 0.66,1.98 1,3C-0.75,6.188 -0.75,6.188 -3,9L-6,9C-4.25,3.25 -4.25,3.25 -2,1C-1.67,1.33 -1.34,1.66 -1,2C-0.67,1.34 -0.34,0.68 0,0Z" style="fill:rgb(225,225,225);fill-rule:nonzero;"/>
    </g>
    <g transform="matrix(1.10143,0,0,1.14242,973.402,399.899)">
        <path d="M0,0C0.99,0.66 1.98,1.32 3,2C2.67,4.31 2.34,6.62 2,9C0.68,8.67 -0.64,8.34 -2,8C-1.125,2.25 -1.125,2.25 0,0Z" style="fill:rgb(235,235,235);fill-rule:nonzero;"/>
    </g>
    <g transform="matrix(1.10143,0,0,1.14242,150.632,187.408)">
        <path d="M0,0C3.161,4.215 3.337,5.061 3,10L1,10L1,18L0,18L0,0Z" style="fill:rgb(214,214,214);fill-rule:nonzero;"/>
    </g>
    <g transform="matrix(1.10143,0,0,1.14242,188.081,1324.12)">
        <path d="M0,0L3,0C3.33,0.66 3.66,1.32 4,2C3.066,4.031 2.068,6.035 1,8C-0.32,7.67 -1.64,7.34 -3,7C-1.125,2.25 -1.125,2.25 0,0Z" style="fill:rgb(221,221,221);fill-rule:nonzero;"/>
    </g>
    <g transform="matrix(1.10143,0,0,1.14242,115.386,1009.95)">
        <path d="M0,0L4,0C2.509,3.795 0.243,5.61 -3,8C-3.33,7.01 -3.66,6.02 -4,5C-2.68,4.34 -1.36,3.68 0,3L0,0Z" style="fill:rgb(230,230,230);fill-rule:nonzero;"/>
    </g>
    <g transform="matrix(1.10143,0,0,1.14242,964.591,471.872)">
        <path d="M0,0L3,0L3,5C0.625,6.063 0.625,6.063 -2,7C-2.66,6.67 -3.32,6.34 -4,6C-2.188,3 -2.188,3 0,0Z" style="fill:rgb(216,216,216);fill-rule:nonzero;"/>
    </g>
    <g transform="matrix(1.10143,0,0,1.14242,967.895,434.172)">
        <path d="M0,0L2,0C1.25,7.75 1.25,7.75 -1,10C-1.66,9.34 -2.32,8.68 -3,8C-2.625,5.375 -2.625,5.375 -2,3L1,3C0.67,2.01 0.34,1.02 0,0Z" style="fill:rgb(224,224,224);fill-rule:nonzero;"/>
    </g>
    <g transform="matrix(1.10143,0,0,1.14242,44.8947,427.317)">
        <path d="M0,0C0,4.264 -2.333,5.8 -5,9L-5,12L-9,12C-7.547,6.673 -3.919,3.636 0,0Z" style="fill:rgb(35,35,35);fill-rule:nonzero;"/>
    </g>
    <g transform="matrix(1.10143,0,0,1.14242,413.875,64.0259)">
        <path d="M0,0L0,3L-2,3C-2.66,4.98 -3.32,6.96 -4,9C-4.99,8.34 -5.98,7.68 -7,7C-6.67,5.68 -6.34,4.36 -6,3L-4,3L-4,1C-2,0 -2,0 0,0Z" style="fill:rgb(234,234,234);fill-rule:nonzero;"/>
    </g>
    <g transform="matrix(1.10143,0,0,1.14242,944.765,1669.13)">
        <path d="M0,0C-0.99,0.495 -0.99,0.495 -2,1L-2,4L-8,4L-8,2C-8.66,1.67 -9.32,1.34 -10,1C-3.714,-1.429 -3.714,-1.429 0,0Z" style="fill:rgb(222,222,222);fill-rule:nonzero;"/>
    </g>
    <g transform="matrix(1.10143,0,0,1.14242,101.068,1407.52)">
        <path d="M0,0L3,0L3,5C0.69,5.33 -1.62,5.66 -4,6C-2.188,3 -2.188,3 0,0Z" style="fill:rgb(225,225,225);fill-rule:nonzero;"/>
    </g>
    <g transform="matrix(1.10143,0,0,1.14242,961.287,1314.98)">
        <path d="M0,0C-1.269,3.914 -2.512,5.791 -6,8C-6.66,7.67 -7.32,7.34 -8,7L-8,5C-2.524,0 -2.524,0 0,0Z" style="fill:rgb(239,239,239);fill-rule:nonzero;"/>
    </g>
    <g transform="matrix(1.10143,0,0,1.14242,951.374,1060.22)">
        <path d="M0,0C0.99,0.33 1.98,0.66 3,1L3,3C3.99,3.33 4.98,3.66 6,4C5.67,5.65 5.34,7.3 5,9C4.34,7.68 3.68,6.36 3,5L1,5C0.67,3.35 0.34,1.7 0,0Z" style="fill:rgb(228,228,228);fill-rule:nonzero;"/>
    </g>
    <g transform="matrix(1.10143,0,0,1.14242,147.328,172.556)">
        <path d="M0,0L2,0L2,4L0,4C-0.597,6.763 -1,9.16 -1,12L-3,12C-2.143,3.429 -2.143,3.429 0,0Z" style="fill:rgb(30,30,30);fill-rule:nonzero;"/>
    </g>
    <g transform="matrix(1.10143,0,0,1.14242,750.913,86.8744)">
        <path d="M0,0C2.625,0.938 2.625,0.938 5,2L5,4C2.36,4.66 -0.28,5.32 -3,6C-2.625,3.563 -2.625,3.563 -2,1C-1.34,0.67 -0.68,0.34 0,0Z" style="fill:rgb(6,6,6);fill-rule:nonzero;"/>
    </g>
    <g transform="matrix(1.10143,0,0,1.14242,171.559,1342.4)">
        <path d="M0,0C1.32,0.66 2.64,1.32 4,2C2.35,3.65 0.7,5.3 -1,7C-1.99,6.67 -2.98,6.34 -4,6C-3.34,4.68 -2.68,3.36 -2,2L0,2L0,0Z" style="fill:rgb(30,30,30);fill-rule:nonzero;"/>
    </g>
    <g transform="matrix(1.10143,0,0,1.14242,998.735,1144.76)">
        <path d="M0,0C0.66,0.33 1.32,0.66 2,1C2.625,4.063 2.625,4.063 3,7C2.34,6.34 1.68,5.68 1,5L1,13C-1.606,9.091 -1.223,5.539 -1,1C-0.67,0.67 -0.34,0.34 0,0Z" style="fill:rgb(219,219,219);fill-rule:nonzero;"/>
    </g>
    <g transform="matrix(1.10143,0,0,1.14242,129.705,1012.24)">
        <path d="M0,0C0.66,1.32 1.32,2.64 2,4C1.258,4.433 0.515,4.866 -0.25,5.313C-2.618,6.766 -4.809,8.296 -7,10C-7.66,9.67 -8.32,9.34 -9,9C-8.01,8.67 -7.02,8.34 -6,8C-5.67,7.01 -5.34,6.02 -5,5C-3.373,3.294 -1.71,1.622 0,0Z" style="fill:rgb(211,211,211);fill-rule:nonzero;"/>
    </g>
    <g transform="matrix(1.10143,0,0,1.14242,954.678,920.844)">
        <path d="M0,0L2,0C1.67,0.66 1.34,1.32 1,2C0.67,1.34 0.34,0.68 0,0ZM-2,1C-1.34,1.33 -0.68,1.66 0,2C-2.315,5.721 -4.286,8.612 -8,11C-6.63,7.005 -4.743,4.2 -2,1Z" style="fill:rgb(39,39,39);fill-rule:nonzero;"/>
    </g>
    <g transform="matrix(1.10143,0,0,1.14242,948.069,269.662)">
        <path d="M0,0L4,0L4,2C5.207,2.433 5.207,2.433 6.438,2.875C9,4 9,4 10,6C6.684,5.447 3.849,4.832 1,3C0.67,2.01 0.34,1.02 0,0Z" style="fill:rgb(222,222,222);fill-rule:nonzero;"/>
    </g>
    <g transform="matrix(1.10143,0,0,1.14242,151.734,241.102)">
        <path d="M0,0C2.622,1.049 3.794,1.649 5.25,4.125C5.497,4.744 5.745,5.363 6,6C2,6 2,6 0.25,4.5C-0.163,4.005 -0.575,3.51 -1,3C-0.67,2.01 -0.34,1.02 0,0Z" style="fill:rgb(231,231,231);fill-rule:nonzero;"/>
    </g>
    <g transform="matrix(1.10143,0,0,1.14242,813.695,1887.34)">
        <path d="M0,0C0,3 0,3 -1.688,4.938C-4.059,7.053 -6.492,9.049 -9,11L-9,9C-9.66,8.67 -10.32,8.34 -11,8C-10.374,7.59 -9.747,7.18 -9.102,6.758C-8.284,6.219 -7.467,5.68 -6.625,5.125C-5.407,4.324 -5.407,4.324 -4.164,3.508C-1.924,2.041 -1.924,2.041 0,0Z" style="fill:rgb(49,49,49);fill-rule:nonzero;"/>
    </g>
    <g transform="matrix(1.10143,0,0,1.14242,276.196,1879.34)">
        <path d="M0,0C1.65,0.33 3.3,0.66 5,1C4.67,2.65 4.34,4.3 4,6C1.03,5.505 1.03,5.505 -2,5C-1.34,3.35 -0.68,1.7 0,0Z" style="fill:rgb(230,230,230);fill-rule:nonzero;"/>
    </g>
    <g transform="matrix(1.10143,0,0,1.14242,167.154,1337.83)">
        <path d="M0,0C-0.349,3.255 -1.021,4.019 -3.563,6.25C-4.367,6.827 -5.171,7.405 -6,8C-6.33,7.01 -6.66,6.02 -7,5C-6.01,4.67 -5.02,4.34 -4,4L-4,1C-2,0 -2,0 0,0Z" style="fill:rgb(237,237,237);fill-rule:nonzero;"/>
    </g>
    <g transform="matrix(1.10143,0,0,1.14242,982.214,1272.71)">
        <path d="M0,0C1.537,2.41 2.098,3.501 1.539,6.359C1.237,7.148 0.936,7.937 0.625,8.75C0.329,9.549 0.032,10.348 -0.273,11.172C-0.513,11.775 -0.753,12.378 -1,13C-1.625,11.188 -1.625,11.188 -2,9C-1.34,8.01 -0.68,7.02 0,6L-2,6C-1.34,4.02 -0.68,2.04 0,0Z" style="fill:rgb(232,232,232);fill-rule:nonzero;"/>
    </g>
    <g transform="matrix(1.10143,0,0,1.14242,101.068,1041.94)">
        <path d="M0,0C1,2 1,2 0.25,4.438C-0.931,6.859 -1.983,8.258 -4,10C-4.99,9.67 -5.98,9.34 -7,9C-5.726,6.962 -4.389,4.961 -3,3L-1,3C-0.67,2.01 -0.34,1.02 0,0Z" style="fill:rgb(208,208,208);fill-rule:nonzero;"/>
    </g>
    <g transform="matrix(1.10143,0,0,1.14242,950.272,477.584)">
        <path d="M0,0C0.66,0.33 1.32,0.66 2,1C0.158,3.544 -1.725,5.833 -4,8C-4.33,6.68 -4.66,5.36 -5,4C-3.35,2.68 -1.7,1.36 0,0Z" style="fill:rgb(27,27,27);fill-rule:nonzero;"/>
    </g>
    <g transform="matrix(1.10143,0,0,1.14242,206.805,383.905)">
        <path d="M0,0C0.33,0.66 0.66,1.32 1,2C0.063,4.625 0.063,4.625 -1,7C-3.97,6.505 -3.97,6.505 -7,6C-4.833,3.725 -2.544,1.842 0,0Z" style="fill:rgb(211,211,211);fill-rule:nonzero;"/>
    </g>
    <g transform="matrix(1.10143,0,0,1.14242,611.031,85.732)">
        <path d="M0,0C0.66,0.33 1.32,0.66 2,1C2.625,3.563 2.625,3.563 3,6C-0.375,5.453 -2.082,4.945 -5,3C-2.625,1.438 -2.625,1.438 0,0Z" style="fill:rgb(229,229,229);fill-rule:nonzero;"/>
    </g>
    <g transform="matrix(1.10143,0,0,1.14242,646.965,63.3833)">
        <path d="M0,0C1.226,0.153 1.226,0.153 2.477,0.309C3.416,0.434 3.416,0.434 4.375,0.563L4.375,1.563C0.415,2.223 -3.545,2.883 -7.625,3.563C-7.295,2.572 -6.965,1.583 -6.625,0.563C-4.104,-0.698 -2.771,-0.356 0,0Z" style="fill:rgb(233,233,233);fill-rule:nonzero;"/>
    </g>
    <g transform="matrix(1.10143,0,0,1.14242,583.495,1816.51)">
        <path d="M0,0C2.164,0.023 2.164,0.023 4.625,0.375C5.851,0.541 5.851,0.541 7.102,0.711C7.728,0.806 8.355,0.902 9,1C8.01,1.495 8.01,1.495 7,2C6.67,2.66 6.34,3.32 6,4C3.36,3.34 0.72,2.68 -2,2C-1.34,1.34 -0.68,0.68 0,0Z" style="fill:rgb(231,231,231);fill-rule:nonzero;"/>
    </g>
    <g transform="matrix(1.10143,0,0,1.14242,889.693,1677.13)">
        <path d="M0,0L7,0C7.33,0.99 7.66,1.98 8,3L-2,3C-1.34,2.67 -0.68,2.34 0,2L0,0Z" style="fill:rgb(237,237,237);fill-rule:nonzero;"/>
    </g>
    <g transform="matrix(1.10143,0,0,1.14242,88.952,1520.62)">
        <path d="M0,0C2.475,0.99 2.475,0.99 5,2L5,6C2.98,5.398 0.979,4.727 -1,4C-1.33,3.34 -1.66,2.68 -2,2L0,2L0,0Z" style="fill:rgb(224,224,224);fill-rule:nonzero;"/>
    </g>
    <g transform="matrix(1.10143,0,0,1.14242,82.3434,1068.22)">
        <path d="M0,0C0.66,0.33 1.32,0.66 2,1C1.625,2.938 1.625,2.938 1,5C0.01,5.495 0.01,5.495 -1,6C-2.041,7.641 -3.045,9.307 -4,11C-4.33,10.34 -4.66,9.68 -5,9C-4.004,6.836 -4.004,6.836 -2.563,4.375C-2.089,3.558 -1.616,2.74 -1.129,1.898C-0.756,1.272 -0.384,0.645 0,0Z" style="fill:rgb(214,214,214);fill-rule:nonzero;"/>
    </g>
    <g transform="matrix(1.10143,0,0,1.14242,937.055,1023.66)">
        <path d="M0,0L3,0C3.33,2.97 3.66,5.94 4,9L1,9C0.67,6.03 0.34,3.06 0,0Z" style="fill:rgb(236,236,236);fill-rule:nonzero;"/>
    </g>
    <g transform="matrix(1.10143,0,0,1.14242,977.808,720.92)">
        <path d="M0,0C2.375,0.25 2.375,0.25 5,1C6.375,2.75 6.375,2.75 7,5C6.625,7.75 6.625,7.75 6,10C4,6.25 4,6.25 4,4L2,4C1.34,2.68 0.68,1.36 0,0Z" style="fill:rgb(222,222,222);fill-rule:nonzero;"/>
    </g>
    <g transform="matrix(1.10143,0,0,1.14242,963.489,301.65)">
        <path d="M0,0C2.19,3.285 2.998,6.207 4,10C3.01,9.67 2.02,9.34 1,9C0.313,6.938 0.313,6.938 0,5L-2,5C-1,2 -1,2 0,0Z" style="fill:rgb(200,200,200);fill-rule:nonzero;"/>
    </g>
    <g transform="matrix(1.10143,0,0,1.14242,221.124,298.223)">
        <path d="M0,0C3.743,1.449 3.743,1.449 4.875,3.875C5.028,6.474 4.335,7.802 3,10C2.67,8.02 2.34,6.04 2,4L0,4L0,0Z" style="fill:rgb(220,220,220);fill-rule:nonzero;"/>
    </g>
    <g transform="matrix(1.10143,0,0,1.14242,439.208,49.1744)">
        <path d="M0,0C0.66,0.33 1.32,0.66 2,1C0.907,2.033 -0.2,3.051 -1.313,4.063C-1.927,4.631 -2.542,5.199 -3.176,5.785C-3.778,6.186 -4.38,6.587 -5,7C-5.99,6.67 -6.98,6.34 -8,6C-3.375,1.125 -3.375,1.125 0,0Z" style="fill:rgb(205,205,205);fill-rule:nonzero;"/>
    </g>
    <g transform="matrix(1.10143,0,0,1.14242,804.883,1904.47)">
        <path d="M0,0C0.66,0.33 1.32,0.66 2,1C-0.052,3.248 -1.007,4.002 -4,5C-4.33,5.66 -4.66,6.32 -5,7C-6.32,6.34 -7.64,5.68 -9,5C-7.547,4.136 -6.088,3.284 -4.625,2.438C-3.407,1.724 -3.407,1.724 -2.164,0.996C-1.45,0.667 -0.736,0.339 0,0Z" style="fill:rgb(214,214,214);fill-rule:nonzero;"/>
    </g>
    <g transform="matrix(1.10143,0,0,1.14242,612.132,1842)">
        <path d="M0,0C2,0.688 2,0.688 4,2.688C2.02,3.678 2.02,3.678 0,4.688C-1.32,3.368 -2.64,2.047 -4,0.688C-2,-0.313 -2,-0.313 0,0Z" style="fill:rgb(226,226,226);fill-rule:nonzero;"/>
    </g>
    <g transform="matrix(1.10143,0,0,1.14242,239.848,1758.24)">
        <path d="M0,0C2,4 2,4 2,7C-0.5,8.688 -0.5,8.688 -3,10C-2.01,6.7 -1.02,3.4 0,0Z" style="fill:rgb(207,207,207);fill-rule:nonzero;"/>
    </g>
    <g transform="matrix(1.10143,0,0,1.14242,975.605,1310.41)">
        <path d="M0,0C1,3 1,3 1,5C-0.626,6.382 -2.293,7.719 -4,9C-4.66,8.67 -5.32,8.34 -6,8C-4.02,5.36 -2.04,2.72 0,0Z" style="fill:rgb(194,194,194);fill-rule:nonzero;"/>
    </g>
    <g transform="matrix(1.10143,0,0,1.14242,972.301,904.851)">
        <path d="M0,0C1.109,3.328 1.016,4.699 0,8C-0.99,8.66 -1.98,9.32 -3,10C-3.75,8.375 -3.75,8.375 -4,6C-2.063,2.75 -2.063,2.75 0,0Z" style="fill:rgb(214,214,214);fill-rule:nonzero;"/>
    </g>
    <g transform="matrix(1.10143,0,0,1.14242,47.0976,789.466)">
        <path d="M0,0L4,0C4.931,2.606 5.149,3.642 4.063,6.25C3.537,7.116 3.537,7.116 3,8C0,2.25 0,2.25 0,0Z" style="fill:rgb(218,218,218);fill-rule:nonzero;"/>
    </g>
    <g transform="matrix(1.10143,0,0,1.14242,929.345,699.214)">
        <path d="M0,0L4,0L4,3L12,3L12,4C10.375,4.027 8.75,4.046 7.125,4.063C5.768,4.08 5.768,4.08 4.383,4.098C2,4 2,4 0,3L0,0Z" style="fill:rgb(198,198,198);fill-rule:nonzero;"/>
    </g>
    <g transform="matrix(1.10143,0,0,1.14242,71.3291,552.984)">
        <path d="M0,0L2,0L2,2C2.99,2.33 3.98,2.66 5,3L5,7C3,6 1,5 -1,4C-0.67,2.68 -0.34,1.36 0,0Z" style="fill:rgb(219,219,219);fill-rule:nonzero;"/>
    </g>
    <g transform="matrix(1.10143,0,0,1.14242,153.937,209.114)">
        <path d="M0,0L1,0C1.221,1.957 1.427,3.916 1.625,5.875C1.741,6.966 1.857,8.056 1.977,9.18C1.984,10.11 1.992,11.041 2,12C1.34,12.66 0.68,13.32 0,14C-0.913,9.029 -0.913,4.971 0,0Z" style="fill:rgb(237,237,237);fill-rule:nonzero;"/>
    </g>
    <g transform="matrix(1.10143,0,0,1.14242,369.817,146.281)">
        <path d="M0,0L8,0C7.67,0.99 7.34,1.98 7,3L1,3C0.67,2.01 0.34,1.02 0,0Z" style="fill:rgb(2,2,2);fill-rule:nonzero;"/>
    </g>
    <g transform="matrix(1.10143,0,0,1.14242,164.951,137.141)">
        <path d="M0,0C0.66,0.33 1.32,0.66 2,1C0.63,4.161 0.011,4.993 -3,7C-3.66,6.67 -4.32,6.34 -5,6L-5,4L-2,4C-1.34,2.68 -0.68,1.36 0,0Z" style="fill:rgb(239,239,239);fill-rule:nonzero;"/>
    </g>
    <g transform="matrix(1.10143,0,0,1.14242,593.408,96.0138)">
        <path d="M0,0C0.66,0.33 1.32,0.66 2,1C-2.185,5.923 -2.185,5.923 -6.313,6.313C-7.199,6.209 -8.086,6.106 -9,6C-7.733,3.466 -6.569,3.068 -4.063,1.813C-3.352,1.448 -2.642,1.083 -1.91,0.707C-1.28,0.474 -0.649,0.24 0,0Z" style="fill:rgb(202,202,202);fill-rule:nonzero;"/>
    </g>
    <g transform="matrix(1.10143,0,0,1.14242,133.009,1008.81)">
        <path d="M0,0C2.063,0.438 2.063,0.438 4,1C2.719,2.707 1.382,4.374 0,6L-2,6C-1.125,1.125 -1.125,1.125 0,0Z" style="fill:rgb(233,233,233);fill-rule:nonzero;"/>
    </g>
    <g transform="matrix(1.10143,0,0,1.14242,146.226,981.393)">
        <path d="M0,0L2,0C2.125,2.875 2.125,2.875 2,6C1.34,6.66 0.68,7.32 0,8L-3,8C-1.125,2.25 -1.125,2.25 0,0Z" style="fill:rgb(228,228,228);fill-rule:nonzero;"/>
    </g>
    <g transform="matrix(1.10143,0,0,1.14242,955.779,909.42)">
        <path d="M0,0L3,0C2.424,2.386 1.778,4.667 1,7C0.01,6.67 -0.98,6.34 -2,6C-1.34,4.02 -0.68,2.04 0,0Z" style="fill:rgb(238,238,238);fill-rule:nonzero;"/>
    </g>
    <g transform="matrix(1.10143,0,0,1.14242,883.085,654.66)">
        <path d="M0,0C0.99,0.33 1.98,0.66 3,1C3.33,1.99 3.66,2.98 4,4C4.227,4.66 4.454,5.32 4.688,6C5,8 5,8 3,11C2.496,9.543 1.997,8.084 1.5,6.625C1.222,5.813 0.943,5.001 0.656,4.164C0,2 0,2 0,0Z" style="fill:rgb(213,213,213);fill-rule:nonzero;"/>
    </g>
    <g transform="matrix(1.10143,0,0,1.14242,957.982,481.011)">
        <path d="M0,0C0.33,0.99 0.66,1.98 1,3C-0.215,4.824 -0.215,4.824 -1.938,6.688C-2.503,7.31 -3.069,7.933 -3.652,8.574C-4.097,9.045 -4.542,9.515 -5,10C-5.66,9.67 -6.32,9.34 -7,9C-6.67,8.01 -6.34,7.02 -6,6L-4,6L-4,4C-2.708,2.627 -1.376,1.29 0,0Z" style="fill:rgb(218,218,218);fill-rule:nonzero;"/>
    </g>
    <g transform="matrix(1.10143,0,0,1.14242,155.038,406.753)">
        <path d="M0,0C-3,2 -3,2 -6,3C-9,2 -9,2 -11,0C-3.571,-1.286 -3.571,-1.286 0,0Z" style="fill:rgb(218,218,218);fill-rule:nonzero;"/>
    </g>
    <g transform="matrix(1.10143,0,0,1.14242,182.574,124.574)">
        <path d="M0,0C0.66,0.33 1.32,0.66 2,1C0.35,2.98 -1.3,4.96 -3,7C-3.99,6.67 -4.98,6.34 -6,6C-2.25,1.125 -2.25,1.125 0,0Z" style="fill:rgb(36,36,36);fill-rule:nonzero;"/>
    </g>
    <g transform="matrix(1.10143,0,0,1.14242,748.71,85.732)">
        <path d="M0,0C0.99,0.33 1.98,0.66 3,1C2.34,1.66 1.68,2.32 1,3L1,5L-1,5C-1.33,5.66 -1.66,6.32 -2,7C-2.99,6.01 -3.98,5.02 -5,4L-3,4L-3,2C-2.01,1.34 -1.02,0.68 0,0Z" style="fill:rgb(27,27,27);fill-rule:nonzero;"/>
    </g>
    <g transform="matrix(1.10143,0,0,1.14242,255.268,1720.54)">
        <path d="M0,0C0.33,0.99 0.66,1.98 1,3C-0.98,4.98 -2.96,6.96 -5,9C-5.66,8.67 -6.32,8.34 -7,8C-4.69,5.36 -2.38,2.72 0,0Z" style="fill:rgb(57,57,57);fill-rule:nonzero;"/>
    </g>
    <g transform="matrix(1.10143,0,0,1.14242,960.185,1656.57)">
        <path d="M0,0C0.66,0.33 1.32,0.66 2,1C0.35,2.98 -1.3,4.96 -3,7C-5,6 -5,6 -6,4C-4.02,2.68 -2.04,1.36 0,0Z" style="fill:rgb(214,214,214);fill-rule:nonzero;"/>
    </g>
    <g transform="matrix(1.10143,0,0,1.14242,84.5463,1414.37)">
        <path d="M0,0C1,3 1,3 -0.438,6.188C-1.211,7.58 -1.211,7.58 -2,9C-2.66,7.68 -3.32,6.36 -4,5C-2.68,3.35 -1.36,1.7 0,0Z" style="fill:rgb(240,240,240);fill-rule:nonzero;"/>
    </g>
    <g transform="matrix(1.10143,0,0,1.14242,96.662,1398.38)">
        <path d="M0,0L0,3L-2,3C-2.66,4.32 -3.32,5.64 -4,7C-4.99,6.34 -5.98,5.68 -7,5C-6.34,4.34 -5.68,3.68 -5,3C-4.505,2.464 -4.01,1.928 -3.5,1.375C-2,0 -2,0 0,0Z" style="fill:rgb(236,236,236);fill-rule:nonzero;"/>
    </g>
    <g transform="matrix(1.10143,0,0,1.14242,171.559,1334.4)">
        <path d="M0,0C0.33,1.32 0.66,2.64 1,4C-0.894,5.894 -2.845,7.42 -5,9C-5.66,8.67 -6.32,8.34 -7,8C-4.69,5.36 -2.38,2.72 0,0Z" style="fill:rgb(40,40,40);fill-rule:nonzero;"/>
    </g>
    <g transform="matrix(1.10143,0,0,1.14242,194.69,1305.84)">
        <path d="M0,0C0.33,0.66 0.66,1.32 1,2L3,2C2.67,3.65 2.34,5.3 2,7C1.01,7.33 0.02,7.66 -1,8C-0.67,5.36 -0.34,2.72 0,0Z" style="fill:rgb(239,239,239);fill-rule:nonzero;"/>
    </g>
    <g transform="matrix(1.10143,0,0,1.14242,978.909,1124.2)">
        <path d="M0,0C0.99,0.495 0.99,0.495 2,1L2,5L4,5C4.33,6.65 4.66,8.3 5,10C3.063,9.375 3.063,9.375 1,8C0.315,5.258 0,2.82 0,0Z" style="fill:rgb(213,213,213);fill-rule:nonzero;"/>
    </g>
    <g transform="matrix(1.10143,0,0,1.14242,87.8506,853.441)">
        <path d="M0,0C2.886,0.398 3.822,0.79 5.75,3.063C6.162,3.702 6.575,4.341 7,5L3,5L3,3C2.01,2.67 1.02,2.34 0,2L0,0Z" style="fill:rgb(241,241,241);fill-rule:nonzero;"/>
    </g>
    <g transform="matrix(1.10143,0,0,1.14242,144.024,629.526)">
        <path d="M0,0C1.32,0.33 2.64,0.66 4,1C3.67,3.31 3.34,5.62 3,8C0.435,5.435 0.46,3.523 0,0Z" style="fill:rgb(223,223,223);fill-rule:nonzero;"/>
    </g>
    <g transform="matrix(1.10143,0,0,1.14242,39.3875,491.293)">
        <path d="M0,0C1.625,1.563 1.625,1.563 3,4C2.188,7.75 2.188,7.75 1,11L0,11C-1.125,3.375 -1.125,3.375 0,0Z" style="fill:rgb(232,232,232);fill-rule:nonzero;"/>
    </g>
    <g transform="matrix(1.10143,0,0,1.14242,246.457,99.4411)">
        <path d="M0,0L0,3C-6.055,3.195 -6.055,3.195 -8,3C-8.66,2.34 -9.32,1.68 -10,1C-6.785,-0.607 -3.564,-0.057 0,0Z" style="fill:rgb(239,239,239);fill-rule:nonzero;"/>
    </g>
    <g transform="matrix(1.10143,0,0,1.14242,585.698,89.1593)">
        <path d="M0,0C-0.66,1.32 -1.32,2.64 -2,4C-4.97,3.505 -4.97,3.505 -8,3C-6.145,-0.71 -3.792,-1.264 0,0Z" style="fill:rgb(232,232,232);fill-rule:nonzero;"/>
    </g>
    <g transform="matrix(1.10143,0,0,1.14242,695.841,1897.62)">
        <path d="M0,0C2.64,0.66 5.28,1.32 8,2C6.688,3.5 6.688,3.5 5,5L2,5C1,3 1,3 0,0Z" style="fill:rgb(229,229,229);fill-rule:nonzero;"/>
    </g>
    <g transform="matrix(1.10143,0,0,1.14242,808.187,1783.38)">
        <path d="M0,0C0.66,0.33 1.32,0.66 2,1C2.594,3.649 2.742,6.292 3,9C0,7 0,7 -0.75,3.938C-0.833,2.968 -0.915,1.999 -1,1C-0.67,0.67 -0.34,0.34 0,0Z" style="fill:rgb(27,27,27);fill-rule:nonzero;"/>
    </g>
    <g transform="matrix(1.10143,0,0,1.14242,163.849,1353.82)">
        <path d="M0,0C0.66,0.33 1.32,0.66 2,1L2,3C0.667,4.333 -0.667,5.667 -2,7C-2.99,6.34 -3.98,5.68 -5,5C-3.625,3.5 -3.625,3.5 -2,2L0,2L0,0Z" style="fill:rgb(212,212,212);fill-rule:nonzero;"/>
    </g>
    <g transform="matrix(1.10143,0,0,1.14242,173.762,1345.83)">
        <path d="M0,0C0.66,0.33 1.32,0.66 2,1C-0.31,3.64 -2.62,6.28 -5,9C-5.66,8.01 -6.32,7.02 -7,6C-4.69,4.02 -2.38,2.04 0,0Z" style="fill:rgb(223,223,223);fill-rule:nonzero;"/>
    </g>
    <g transform="matrix(1.10143,0,0,1.14242,981.112,889.999)">
        <path d="M0,0L3,0C2,3 2,3 0,5L0,7C-0.99,7.33 -1.98,7.66 -3,8C-2.453,4.625 -1.945,2.918 0,0Z" style="fill:rgb(221,221,221);fill-rule:nonzero;"/>
    </g>
    <g transform="matrix(1.10143,0,0,1.14242,84.5463,417.035)">
        <path d="M0,0C0.66,0.33 1.32,0.66 2,1C1.01,1.66 0.02,2.32 -1,3C-0.34,3.66 0.32,4.32 1,5C-1.97,4.67 -4.94,4.34 -8,4C-5.311,2.208 -3.047,1.016 0,0Z" style="fill:rgb(185,185,185);fill-rule:nonzero;"/>
    </g>
    <g transform="matrix(1.10143,0,0,1.14242,94.4592,399.899)">
        <path d="M0,0L2,0L2,5C0.35,5.33 -1.3,5.66 -3,6C-2.427,3.133 -2.139,2.139 0,0Z" style="fill:rgb(240,240,240);fill-rule:nonzero;"/>
    </g>
    <g transform="matrix(1.10143,0,0,1.14242,189.182,398.756)">
        <path d="M0,0C-0.33,0.66 -0.66,1.32 -1,2C-1.722,1.814 -2.444,1.629 -3.188,1.438C-6.128,0.98 -8.141,1.265 -11,2C-8.745,-2.51 -4.157,-0.706 0,0Z" style="fill:rgb(206,206,206);fill-rule:nonzero;"/>
    </g>
    <g transform="matrix(1.10143,0,0,1.14242,972.301,329.068)">
        <path d="M0,0C2.19,3.285 2.353,4.831 2.625,8.688C2.7,9.681 2.775,10.675 2.852,11.699C2.925,12.838 2.925,12.838 3,14C2.01,13.67 1.02,13.34 0,13L0,0Z" style="fill:rgb(198,198,198);fill-rule:nonzero;"/>
    </g>
    <g transform="matrix(1.10143,0,0,1.14242,973.402,295.938)">
        <path d="M0,0L4,0L4,2L2,2L2,6L-1,6C-0.67,4.02 -0.34,2.04 0,0Z" style="fill:rgb(232,232,232);fill-rule:nonzero;"/>
    </g>
    <g transform="matrix(1.10143,0,0,1.14242,288.311,114.293)">
        <path d="M0,0C1.46,0.282 2.918,0.576 4.375,0.875C5.187,1.037 5.999,1.2 6.836,1.367C9,2 9,2 11,4L2,4C1.34,2.68 0.68,1.36 0,0Z" style="fill:rgb(185,185,185);fill-rule:nonzero;"/>
    </g>
    <g transform="matrix(1.10143,0,0,1.14242,323.557,114.293)">
        <path d="M0,0C1.125,3.75 1.125,3.75 0,6C-1.32,5.67 -2.64,5.34 -4,5L-4,2C-2.68,1.34 -1.36,0.68 0,0Z" style="fill:rgb(235,235,235);fill-rule:nonzero;"/>
    </g>
    <g transform="matrix(1.10143,0,0,1.14242,596.712,94.8714)">
        <path d="M0,0C0.66,0.33 1.32,0.66 2,1C0.771,4.688 -0.939,5.724 -4,8C-3.502,4.312 -2.899,2.395 0,0Z" style="fill:rgb(243,243,243);fill-rule:nonzero;"/>
    </g>
    <g transform="matrix(1.10143,0,0,1.14242,764.13,86.8744)">
        <path d="M0,0L0,3L0,0ZM-6,3L-1,3C-0.34,4.32 0.32,5.64 1,7C-1.915,5.926 -3.778,5.222 -6,3Z" style="fill:rgb(221,221,221);fill-rule:nonzero;"/>
    </g>
    <g transform="matrix(1.10143,0,0,1.14242,425.99,60.5987)">
        <path d="M0,0C0.99,1.32 1.98,2.64 3,4C-1.625,7 -1.625,7 -5,7C-3.35,4.69 -1.7,2.38 0,0Z" style="fill:rgb(204,204,204);fill-rule:nonzero;"/>
    </g>
    <g transform="matrix(1.10143,0,0,1.14242,367.614,1897.62)">
        <path d="M0,0C-1.625,1.563 -1.625,1.563 -4,3C-7.25,2.688 -7.25,2.688 -10,2C-3.75,-1.125 -3.75,-1.125 0,0Z" style="fill:rgb(217,217,217);fill-rule:nonzero;"/>
    </g>
    <g transform="matrix(1.10143,0,0,1.14242,681.66,1889.55)">
        <path d="M0,0C0.949,0.351 1.898,0.701 2.875,1.063C1.063,2.125 1.063,2.125 -1.125,3.063C-2.115,2.733 -3.105,2.403 -4.125,2.063C-4.455,1.403 -4.785,0.743 -5.125,0.063C-3.125,-0.938 -3.125,-0.938 0,0Z" style="fill:rgb(237,237,237);fill-rule:nonzero;"/>
    </g>
    <g transform="matrix(1.10143,0,0,1.14242,803.782,1784.52)">
        <path d="M0,0L3,0C3.188,2.375 3.188,2.375 3,5C2.01,5.66 1.02,6.32 0,7C-1.125,2.25 -1.125,2.25 0,0Z" style="fill:rgb(1,1,1);fill-rule:nonzero;"/>
    </g>
    <g transform="matrix(1.10143,0,0,1.14242,804.883,1696.55)">
        <path d="M0,0C0.66,0.66 1.32,1.32 2,2C1.75,4.563 1.75,4.563 1,7C0.01,7.495 0.01,7.495 -1,8C-1.66,7.34 -2.32,6.68 -3,6C-2.34,5.34 -1.68,4.68 -1,4C-0.357,1.931 -0.357,1.931 0,0Z" style="fill:rgb(236,236,236);fill-rule:nonzero;"/>
    </g>
    <g transform="matrix(1.10143,0,0,1.14242,986.619,1602.87)">
        <path d="M0,0L4,0L4,4C3.01,4.33 2.02,4.66 1,5C0.34,5.66 -0.32,6.32 -1,7C-0.67,4.69 -0.34,2.38 0,0Z" style="fill:rgb(217,217,217);fill-rule:nonzero;"/>
    </g>
    <g transform="matrix(1.10143,0,0,1.14242,253.065,1559.46)">
        <path d="M0,0C5.75,-0.125 5.75,-0.125 8,1L8,3C5.36,2.67 2.72,2.34 0,2L0,0Z" style="fill:rgb(222,222,222);fill-rule:nonzero;"/>
    </g>
    <g transform="matrix(1.10143,0,0,1.14242,962.388,1479.49)">
        <path d="M0,0C0.99,0.33 1.98,0.66 3,1C2.67,1.99 2.34,2.98 2,4C2.66,4.33 3.32,4.66 4,5L2,5C1.67,5.66 1.34,6.32 1,7C0.01,5.35 -0.98,3.7 -2,2L0,2L0,0Z" style="fill:rgb(230,230,230);fill-rule:nonzero;"/>
    </g>
    <g transform="matrix(1.10143,0,0,1.14242,119.861,1376.6)">
        <path d="M0,0C1.454,0.031 1.454,0.031 2.938,0.063C1.648,1.438 0.311,2.77 -1.063,4.063L-3.063,4.063C-3.393,4.723 -3.723,5.383 -4.063,6.063C-4.105,4.396 -4.103,2.729 -4.063,1.063C-3.063,0.063 -3.063,0.063 0,0Z" style="fill:rgb(234,234,234);fill-rule:nonzero;"/>
    </g>
    <g transform="matrix(1.10143,0,0,1.14242,946.968,1346.97)">
        <path d="M0,0C0.625,1.813 0.625,1.813 1,4C0.01,5.485 0.01,5.485 -1,7C-2.32,6.67 -3.64,6.34 -5,6C-3.35,4.02 -1.7,2.04 0,0Z" style="fill:rgb(207,207,207);fill-rule:nonzero;"/>
    </g>
    <g transform="matrix(1.10143,0,0,1.14242,973.402,1093.35)">
        <path d="M0,0C0.33,0.99 0.66,1.98 1,3L3,3C3.33,4.32 3.66,5.64 4,7L1,7C-0.063,4.625 -0.063,4.625 -1,2C-0.67,1.34 -0.34,0.68 0,0Z" style="fill:rgb(237,237,237);fill-rule:nonzero;"/>
    </g>
    <g transform="matrix(1.10143,0,0,1.14242,140.719,895.711)">
        <path d="M0,0C3,1 3,1 4.25,2.813C5.116,5.339 4.885,6.522 4,9C0,3.375 0,3.375 0,0Z" style="fill:rgb(230,230,230);fill-rule:nonzero;"/>
    </g>
    <g transform="matrix(1.10143,0,0,1.14242,79.0391,837.447)">
        <path d="M0,0C0.99,0.33 1.98,0.66 3,1C3.33,2.98 3.66,4.96 4,7C2,5.75 2,5.75 0,4L0,0Z" style="fill:rgb(33,33,33);fill-rule:nonzero;"/>
    </g>
    <g transform="matrix(1.10143,0,0,1.14242,44.8947,750.623)">
        <path d="M0,0L3,0C3.33,0.66 3.66,1.32 4,2C3,5 3,5 0.938,6.188C0.298,6.456 -0.341,6.724 -1,7C-0.67,4.69 -0.34,2.38 0,0Z" style="fill:rgb(211,211,211);fill-rule:nonzero;"/>
    </g>
    <g transform="matrix(1.10143,0,0,1.14242,98.8649,580.402)">
        <path d="M0,0L5,0C5.33,1.65 5.66,3.3 6,5C1.125,2.25 1.125,2.25 0,0Z" style="fill:rgb(222,222,222);fill-rule:nonzero;"/>
    </g>
    <g transform="matrix(1.10143,0,0,1.14242,873.172,541.559)">
        <path d="M0,0C0.66,0.66 1.32,1.32 2,2C-0.97,4.475 -0.97,4.475 -4,7C-4.33,6.34 -4.66,5.68 -5,5C-4.34,4.01 -3.68,3.02 -3,2L0,2L0,0Z" style="fill:rgb(243,243,243);fill-rule:nonzero;"/>
    </g>
    <g transform="matrix(1.10143,0,0,1.14242,503.091,1823.36)">
        <path d="M0,0L0,2C-3.325,3.108 -5.622,2.845 -9,2C-3.429,-1.714 -3.429,-1.714 0,0Z" style="fill:rgb(41,41,41);fill-rule:nonzero;"/>
    </g>
    <g transform="matrix(1.10143,0,0,1.14242,261.877,1726.25)">
        <path d="M0,0C0.66,0.99 1.32,1.98 2,3C-0.97,5.475 -0.97,5.475 -4,8C-4.66,7.67 -5.32,7.34 -6,7C-4.02,4.69 -2.04,2.38 0,0Z" style="fill:rgb(202,202,202);fill-rule:nonzero;"/>
    </g>
    <g transform="matrix(1.10143,0,0,1.14242,957.982,1333.26)">
        <path d="M0,0C0.33,0.99 0.66,1.98 1,3C-0.65,4.65 -2.3,6.3 -4,8C-4.66,7.67 -5.32,7.34 -6,7C-4.02,4.69 -2.04,2.38 0,0Z" style="fill:rgb(203,203,203);fill-rule:nonzero;"/>
    </g>
    <g transform="matrix(1.10143,0,0,1.14242,182.574,1333.26)">
        <path d="M0,0C0.33,1.32 0.66,2.64 1,4C-1.438,6.75 -1.438,6.75 -4,9C-4.66,8.67 -5.32,8.34 -6,8C-4.02,5.36 -2.04,2.72 0,0Z" style="fill:rgb(191,191,191);fill-rule:nonzero;"/>
    </g>
    <g transform="matrix(1.10143,0,0,1.14242,186.979,1214.45)">
        <path d="M0,0C0.66,0.33 1.32,0.66 2,1L2,10C-0.5,5 -0.5,5 -1,2C-0.67,1.34 -0.34,0.68 0,0Z" style="fill:rgb(227,227,227);fill-rule:nonzero;"/>
    </g>
    <g transform="matrix(1.10143,0,0,1.14242,94.4592,1174.46)">
        <path d="M0,0C4.95,0.99 4.95,0.99 10,2C6,4 6,4 3.875,3.813C2,3 2,3 0,0Z" style="fill:rgb(195,195,195);fill-rule:nonzero;"/>
    </g>
    <g transform="matrix(1.10143,0,0,1.14242,151.734,918.56)">
        <path d="M0,0C2.475,0.495 2.475,0.495 5,1L5,4L3,4C2.67,4.99 2.34,5.98 2,7L2,2L0,2L0,0Z" style="fill:rgb(218,218,218);fill-rule:nonzero;"/>
    </g>
    <g transform="matrix(1.10143,0,0,1.14242,954.678,701.499)">
        <path d="M0,0L3,0L3,3L6,3C5.67,3.66 5.34,4.32 5,5C2.36,4.34 -0.28,3.68 -3,3C-2.01,2.67 -1.02,2.34 0,2L0,0Z" style="fill:rgb(200,200,200);fill-rule:nonzero;"/>
    </g>
    <g transform="matrix(1.10143,0,0,1.14242,47.0976,515.284)">
        <path d="M0,0C1.485,0.99 1.485,0.99 3,2L3,6L1,6C0.67,6.66 0.34,7.32 0,8C-0.8,4.713 -1.097,3.29 0,0Z" style="fill:rgb(220,220,220);fill-rule:nonzero;"/>
    </g>
    <g transform="matrix(1.10143,0,0,1.14242,952.475,471.872)">
        <path d="M0,0C0.33,0.99 0.66,1.98 1,3C-0.32,3.99 -1.64,4.98 -3,6C-3.66,5.01 -4.32,4.02 -5,3C-3.35,2.01 -1.7,1.02 0,0Z" style="fill:rgb(240,240,240);fill-rule:nonzero;"/>
    </g>
    <g transform="matrix(1.10143,0,0,1.14242,711.261,69.7381)">
        <path d="M0,0C2.875,-0.188 2.875,-0.188 6,0C6.66,0.99 7.32,1.98 8,3C5.36,2.67 2.72,2.34 0,2L0,0Z" style="fill:rgb(220,220,220);fill-rule:nonzero;"/>
    </g>
    <g transform="matrix(1.10143,0,0,1.14242,419.382,60.5987)">
        <path d="M0,0C0.33,0.66 0.66,1.32 1,2C0.34,1.67 -0.32,1.34 -1,1C-0.67,0.67 -0.34,0.34 0,0ZM-4,2C-2.02,2.495 -2.02,2.495 0,3C-1.375,4.5 -1.375,4.5 -3,6L-5,6C-4.67,4.68 -4.34,3.36 -4,2Z" style="fill:rgb(23,23,23);fill-rule:nonzero;"/>
    </g>
    <g transform="matrix(1.10143,0,0,1.14242,486.569,51.4593)">
        <path d="M0,0C1.625,2 1.625,2 3,4C2.34,4.66 1.68,5.32 1,6C-0.98,4.68 -2.96,3.36 -5,2C-2,0 -2,0 0,0Z" style="fill:rgb(222,222,222);fill-rule:nonzero;"/>
    </g>
    <g transform="matrix(1.10143,0,0,1.14242,456.83,50.3168)">
        <path d="M0,0C1.98,0.66 3.96,1.32 6,2C5.67,2.66 5.34,3.32 5,4C2.03,3.505 2.03,3.505 -1,3C-0.67,2.01 -0.34,1.02 0,0Z" style="fill:rgb(229,229,229);fill-rule:nonzero;"/>
    </g>
</svg>
