<?xml version="1.0" encoding="UTF-8" standalone="no"?>
<!DOCTYPE svg PUBLIC "-//W3C//DTD SVG 1.1//EN" "http://www.w3.org/Graphics/SVG/1.1/DTD/svg11.dtd">
<svg width="100%" height="100%" viewBox="0 0 1014 1936" version="1.1" xmlns="http://www.w3.org/2000/svg" xmlns:xlink="http://www.w3.org/1999/xlink" xml:space="preserve" xmlns:serif="http://www.serif.com/" style="fill-rule:evenodd;clip-rule:evenodd;stroke-linejoin:round;stroke-miterlimit:2;">
    <g transform="matrix(1.10143,0,0,1.14242,448.282,39.3332)">
        <path d="M0,0C12.832,-0.745 23.605,5.774 34.152,12.188C35.395,12.874 36.639,13.559 37.883,14.242C41.789,16.566 43.539,18.544 46.152,22.188C46.152,22.848 47.472,24.188 48.152,24.188C49.879,26.051 49.879,26.051 51.777,28.5C52.409,29.301 53.041,30.101 53.691,30.926C55.152,33.188 57.132,36.847 58.152,37.188C58.915,38.219 59.679,39.25 60.465,40.313C65.921,46.965 75.716,51.325 84.152,52.188C99.269,52.991 113.532,52.291 127.152,45.188C128.653,44.47 128.653,44.47 130.184,43.738C134.953,41.444 139.482,39.071 143.84,36.063C152.47,30.161 162.077,27.468 172.071,24.756C173.893,24.258 175.707,23.733 177.52,23.203C199.377,17.538 222.533,21.656 243.829,27.562C246.712,28.338 249.612,29.027 252.519,29.71C264.627,32.588 274.739,36.248 284.496,44.102C287.048,46.207 287.048,46.207 289.684,47.648C294.767,50.817 298.49,55.599 302.34,60.125C303.2,61.124 304.059,62.123 304.945,63.152C307.128,66.154 313.861,82.229 314.541,82.229C318.076,88.475 322.472,99.188 323.152,99.188C324.345,103.064 326.472,110.188 327.152,110.188C327.425,111.04 327.425,111.04 327.703,111.91C328.934,115.69 330.188,119.382 331.84,123C333.152,126.188 333.662,127.486 335.152,130.188C336.691,132.977 337.472,138.188 338.152,138.188C338.374,138.873 338.595,139.558 338.823,140.264C339.843,143.407 340.873,146.547 341.902,149.688C342.25,150.765 342.598,151.843 342.957,152.953C346.733,164.916 346.733,164.916 354.465,174.5C355.183,175.136 355.901,175.771 356.641,176.426C361.92,180.129 367.097,181.571 373.43,182.434C374.11,182.529 374.79,182.625 375.491,182.724C376.941,182.928 378.392,183.127 379.843,183.322C382.887,183.732 385.927,184.166 388.969,184.599C390.502,184.817 392.035,185.034 393.568,185.25C400.295,186.199 407.009,187.22 413.715,188.313C414.651,188.459 415.588,188.605 416.552,188.756C422.325,189.708 427.666,191.17 433.152,193.188C433.94,193.473 434.727,193.758 435.539,194.052C437.976,194.941 440.409,195.843 442.84,196.75C447.921,198.642 452.401,200.292 458.206,203.064C464.968,206.292 468.893,209.48 472.152,214.188C472.152,214.848 475.827,219.35 476.652,220.938C477.116,221.819 477.58,222.701 478.059,223.609C479.152,226.188 480.472,230.188 481.152,230.188C485.465,244.086 489.331,257.731 491.152,272.188C491.283,273.178 491.413,274.168 491.547,275.188C493.369,292.292 493.235,310.699 489.086,327.414C488.392,330.218 487.742,333.016 487.125,335.836C484.057,349.617 479.818,362.869 475.152,376.188C474.492,376.188 471.107,383.234 467.225,386.616C466.565,386.616 463.731,390.803 462.152,392.188C460.465,393.668 460.465,393.668 458.152,395.375C450.126,401.446 442.88,408.002 436.309,415.641C428.343,424.752 406.152,439.508 406.152,440.188C403.507,442.039 400.806,443.774 398.078,445.5C392.905,449.019 390.515,452.06 389.152,458.188C383.901,486.157 389.784,530.062 404.69,554.732C412.839,566.183 428.054,577.744 442.152,580.188C445.854,580.466 449.563,580.575 453.271,580.713C462.866,581.165 473.113,583.166 480.152,590.188C486.152,597.138 483.389,594.015 487.444,597.796C487.774,599.776 490.472,606.188 491.152,606.188C500.388,632.983 501.81,661.011 501.152,689.188C501.125,690.961 501.125,690.961 501.098,692.77C500.183,713.29 493.508,734.028 484.152,752.188C483.492,752.188 481.699,753.508 481.465,754.188C480.026,757.476 478.237,760.325 476.273,763.32C474.996,765.295 471.74,769.508 471.527,770.188C469.948,773.634 467.865,776.269 465.551,779.25C463.966,781.445 460.029,787.755 459.965,788.563C459.236,791.815 458.391,793.805 456.84,796.688C453.588,802.909 451.953,809.434 450.152,816.188C449.372,818.83 448.571,821.466 447.766,824.102C447.563,824.79 447.361,825.478 447.152,826.188C446.964,826.77 446.776,827.353 446.582,827.953C442.583,848.747 447.726,874.405 458.59,892.313C459.084,893.037 459.577,893.761 460.086,894.508C461.152,896.188 464.191,900.023 464.727,900.969C469.095,908.666 473.559,916.244 478.422,923.641C478.829,924.265 479.237,924.888 479.656,925.531C480.472,926.779 481.293,928.024 482.119,929.266C484.018,932.174 489.825,941.059 490.652,942.5C491.116,943.301 491.58,944.101 492.059,944.926C493.152,947.188 495.828,951.948 496.176,952.855C496.845,954.598 496.845,954.598 497.527,956.375C497.968,957.524 498.409,958.672 498.863,959.855C499.634,961.846 500.424,963.83 501.254,965.797C502.996,970.433 503.476,975.302 504.152,980.188C504.435,982.08 504.435,982.08 504.723,984.012C509.536,1020.25 509.577,1066.22 491.652,1098.94C491.262,1099.67 490.871,1100.39 490.469,1101.14C487.181,1107.24 478.039,1119.04 477.465,1120C476.815,1121.08 470.696,1127.98 468.902,1129.94C465.811,1133.37 463.067,1136.94 460.414,1140.72C459.998,1141.2 459.581,1141.69 459.152,1142.19C458.492,1142.19 453.42,1148.71 451.715,1151.06C445.868,1159.35 444.023,1165.79 443.914,1175.9C443.906,1176.63 443.898,1177.37 443.89,1178.12C443.876,1179.67 443.865,1181.22 443.857,1182.77C443.846,1184.32 443.825,1185.88 443.796,1187.43C443.517,1202.03 446.467,1213.93 451.418,1227.7C452.152,1230.19 454.481,1235.2 454.816,1236.24C456.909,1242.38 459.421,1247.67 462.98,1253.09C464.152,1255.19 465.472,1258.19 466.152,1258.19C471.929,1264.66 476.406,1272.56 481.027,1279.88C481.885,1281.21 481.885,1281.21 482.759,1282.57C485.984,1287.75 492.45,1302.52 493.09,1304.69C493.449,1305.89 493.809,1307.1 494.18,1308.34C496.466,1317.38 496.395,1326.42 496.402,1335.69C496.403,1336.76 496.403,1336.76 496.404,1337.86C496.389,1348.27 496.017,1358.09 493.152,1368.19C492.965,1368.87 492.777,1369.55 492.584,1370.25C490.438,1377.93 487.945,1385.14 484.152,1392.19C483.786,1393.51 480.699,1397.51 480.465,1398.19C478.742,1402.12 476.481,1405.59 474.152,1409.19C473.513,1410.26 472.874,1411.33 472.215,1412.44C469.866,1415.57 467.546,1417.27 464.152,1419.19C463.492,1419.19 451.774,1426.18 445.996,1427.77C445.227,1427.98 444.457,1428.19 443.664,1428.41C434.128,1430.89 424.432,1431.87 414.652,1432.88C412.815,1433.08 410.978,1433.28 409.141,1433.48C402.146,1434.24 395.151,1434.99 388.148,1435.68C380.313,1436.46 372.755,1437.34 365.277,1439.94C364.492,1440.2 340.94,1448.85 335.09,1459.62C334.427,1461.14 333.784,1462.66 333.152,1464.19C332.633,1465.3 332.113,1466.41 331.578,1467.55C319.869,1493.81 331.626,1525.85 337.938,1552.35C339.913,1560.79 341.578,1569.28 343.119,1577.81C343.387,1579.28 343.657,1580.76 343.932,1582.24C349.189,1610.71 349.189,1610.71 342.027,1622.19C334.471,1631.42 319.62,1639 308.152,1641.19C305.305,1641.46 302.48,1641.52 299.621,1641.52C298.827,1641.53 298.033,1641.54 297.214,1641.54C295.54,1641.55 293.866,1641.56 292.192,1641.56C289.686,1641.56 287.182,1641.6 284.676,1641.64C270.727,1641.74 258.164,1639.43 245.34,1633.75C244.64,1633.45 243.94,1633.15 243.218,1632.85C238.194,1630.69 233.206,1628.45 228.254,1626.13C226.036,1625.09 226.036,1625.09 223.152,1624.19C223.152,1623.53 212.455,1618.5 208.152,1616.19C208.152,1615.53 197.783,1610.55 194.215,1608.56C193.071,1607.93 191.928,1607.3 190.75,1606.65C189.893,1606.17 189.036,1605.68 188.152,1605.19C188.152,1604.61 173,1594.44 167.578,1589.15C164.02,1585.74 154.502,1578.73 153.652,1578.5C150.027,1577.14 147.112,1575.41 143.887,1573.31C142.147,1572.14 142.147,1572.14 140.152,1571.19C140.152,1570.53 124.349,1565.34 118.172,1562.84C99.098,1556.71 75.805,1561.63 57.238,1567.32C54.218,1568.17 48.152,1570.51 48.152,1571.19C47.616,1571.38 47.08,1571.58 46.527,1571.78C35.71,1575.91 25.323,1581.26 15.27,1586.99C13.745,1587.85 12.207,1588.69 10.66,1589.51C5.282,1592.36 0.125,1595.43 -4.973,1598.75C-19.361,1608.11 -25.848,1610.51 -25.848,1611.19C-26.391,1611.37 -26.935,1611.55 -27.496,1611.73C-31.414,1613.04 -35.327,1614.35 -39.23,1615.69C-49.427,1619.19 -59.695,1622.41 -70.035,1625.46C-71.397,1625.86 -72.758,1626.26 -74.118,1626.66C-93.464,1632.42 -115.022,1633.62 -134.848,1629.19C-136.449,1628.88 -136.449,1628.88 -138.082,1628.56C-164.065,1623.19 -181.028,1607.37 -195.848,1586.19C-202.062,1576.44 -203.391,1565.02 -203.285,1553.69C-203.28,1552.56 -203.274,1551.44 -203.269,1550.28C-203.096,1540.64 -201.693,1531.58 -199.356,1522.25C-198.903,1520.41 -198.51,1518.56 -198.125,1516.71C-195.352,1503.86 -188.323,1491.2 -179.848,1481.19C-178.717,1479.75 -177.593,1478.32 -176.473,1476.88C-175.574,1475.72 -175.574,1475.72 -174.656,1474.55C-172.41,1471.62 -170.249,1468.63 -168.109,1465.62C-167.485,1464.91 -153.637,1445.81 -152.285,1443.44C-149.638,1438.67 -147.111,1433.87 -144.66,1429C-144.327,1428.35 -143.995,1427.69 -143.652,1427.02C-141.39,1422.51 -139.563,1417.93 -137.848,1413.19C-137.327,1411.82 -136.804,1410.45 -136.277,1409.08C-135.893,1408.07 -135.893,1408.07 -135.5,1407.04C-134.977,1405.67 -134.451,1404.3 -133.922,1402.92C-129.171,1390.4 -130.665,1378.19 -132.848,1365.19C-133.508,1365.19 -148.801,1347.44 -158.998,1344.18C-182.676,1337.53 -206.032,1335.85 -230.468,1334.59C-247.496,1333.69 -264.4,1332.34 -280.91,1327.81C-281.698,1327.6 -282.487,1327.39 -283.299,1327.17C-288.41,1325.74 -293.04,1323.94 -297.691,1321.36C-299.89,1320.16 -302.066,1319.3 -304.41,1318.44C-309.341,1316.52 -313.983,1314.14 -318.66,1311.69C-319.39,1311.31 -320.12,1310.93 -320.871,1310.54C-331.864,1304.68 -335.168,1298.19 -335.848,1298.19C-337.563,1295.21 -339.209,1292.2 -340.848,1289.19C-341.453,1288.18 -341.453,1288.18 -342.07,1287.15C-349.717,1272.95 -343.353,1252.26 -339.082,1237.9C-336.859,1231.21 -334.262,1224.68 -331.629,1218.15C-330.978,1216.52 -330.361,1214.86 -329.754,1213.21C-327.323,1206.62 -323.771,1201 -319.848,1195.19C-319.188,1194.2 -307.848,1182.87 -307.848,1182.19C-306.168,1180.68 -306.168,1180.68 -303.973,1179.06C-303.253,1178.52 -297.848,1174.87 -297.848,1174.19C-296.001,1172.83 -294.093,1171.55 -292.16,1170.31C-285.79,1166.22 -280.205,1161.66 -274.617,1156.58C-272.848,1155.19 -270.848,1153.87 -270.848,1153.19C-269.047,1151.81 -269.047,1151.81 -266.535,1150.19C-256.898,1143.59 -248.921,1136.2 -242.848,1126.19C-242.241,1125.22 -241.633,1124.26 -241.008,1123.27C-229.792,1104.2 -227.815,1078.13 -232.738,1056.79C-240.193,1032.61 -255.799,1019.57 -277.277,1007.86C-279.114,1006.93 -280.98,1006.06 -282.848,1005.19C-283.503,1004.86 -284.157,1004.54 -284.832,1004.21C-290.921,1001.31 -297.222,999.564 -303.711,997.778C-307.869,996.629 -312.017,995.45 -316.16,994.25C-317.395,993.907 -317.395,993.907 -318.656,993.557C-324.556,991.835 -329.581,989.333 -334.848,986.188C-336.364,985.352 -336.364,985.352 -337.91,984.5C-338.869,983.85 -341.828,980.528 -342.848,980.188C-350.389,971.468 -350.33,959.066 -350.223,948.125C-350.234,946.936 -350.246,945.747 -350.258,944.521C-350.227,935.107 -348.699,926.834 -344.727,918.266C-342.98,914.137 -341.649,909.839 -340.227,905.59C-338.797,902.063 -337.159,899.207 -334.848,896.188C-334.188,896.188 -330.79,890.378 -329.301,888.289C-328.527,887.199 -328.527,887.199 -327.738,886.086C-326.926,884.961 -326.926,884.961 -326.098,883.813C-325.572,883.07 -325.046,882.328 -324.504,881.563C-321.452,877.287 -302.435,856.921 -299.598,854.438C-294.662,850.027 -284.67,838.896 -284.488,837.578C-283.064,830.041 -279.79,822.855 -276.285,816.063C-275.466,814.441 -274.654,812.816 -273.848,811.188C-273.451,810.386 -273.054,809.584 -272.645,808.758C-268.153,798.352 -268.057,784.971 -271.914,774.305C-273.432,770.862 -275.117,767.529 -276.848,764.188C-276.848,763.528 -279.209,761.134 -279.578,760.059C-281.054,756.72 -282.942,754.147 -285.16,751.25C-285.565,750.721 -285.969,750.192 -286.386,749.646C-290.603,744.153 -294.928,739.071 -299.848,734.188C-307.181,726.854 -314.514,719.521 -321.848,712.188C-322.726,711.315 -323.604,710.443 -324.509,709.544C-327.125,706.908 -329.571,704.152 -332.035,701.375C-336.33,696.588 -340.854,692.539 -346.047,688.711C-346.641,688.208 -347.235,687.705 -347.848,687.188C-347.848,686.528 -356.042,678.646 -358.848,675.188C-359.526,674.392 -360.204,673.597 -360.902,672.777C-370.925,660.24 -373.447,645.848 -371.848,630.188C-369.688,616.851 -364.486,609.255 -353.785,601.313C-349.376,598.198 -344.914,595.163 -340.41,592.188C-339.819,591.789 -339.228,591.391 -338.619,590.981C-335.308,588.833 -329.848,586.867 -329.848,586.188C-323.296,582.628 -316.6,579.904 -309.614,577.356C-304.812,575.59 -300.366,573.57 -295.848,571.188C-294.693,570.754 -293.538,570.321 -292.348,569.875C-284.452,566.068 -278.65,559.391 -273.848,552.188C-272.948,544.725 -274.136,537.847 -276.191,530.684C-276.848,528.188 -279.714,522.712 -280.16,521.438C-281.364,518.225 -282.686,515.867 -284.848,513.188C-285.405,512.094 -285.961,511.001 -286.535,509.875C-288.669,506.03 -291.575,503.534 -294.945,500.766C-296.691,499.318 -298.254,497.798 -299.848,496.188C-301.068,495.094 -302.298,494.012 -303.535,492.938C-305.642,491.107 -307.747,489.277 -309.832,487.422C-314.045,483.681 -318.376,480.168 -322.867,476.766C-324.671,475.328 -326.219,473.816 -327.848,472.188C-329.626,470.693 -331.419,469.215 -333.223,467.75C-334.159,466.988 -335.094,466.226 -336.059,465.441C-337.916,463.941 -339.796,462.469 -341.699,461.027C-342.408,460.42 -343.117,459.813 -343.848,459.188C-343.848,458.527 -355.786,449.254 -359,443.922C-359.848,442.188 -362.852,437.648 -363.348,436.375C-363.626,435.667 -363.905,434.96 -364.191,434.23C-364.848,432.188 -370.209,420.188 -370.848,420.188C-379.122,396.3 -382.577,374.294 -372.461,350.152C-366.62,339.419 -356.513,334.107 -345.848,329.188C-344.72,328.654 -343.592,328.12 -342.43,327.57C-325.22,320.064 -305.958,316.468 -287.336,314.773C-269.692,313.159 -252.676,310.813 -236.086,304.359C-232.848,303.188 -229.848,301.868 -229.848,301.188C-228.345,300.228 -226.793,299.345 -225.223,298.5C-220.883,296.011 -211.311,286.703 -211.035,285.938C-209.848,283.188 -209.848,283.188 -208.375,281.336C-206.669,278.937 -205.992,276.893 -205.223,274.063C-203.914,269.32 -203.914,269.32 -202.848,267.188C-201.901,252.956 -203.832,239.108 -212.891,227.59C-217.064,222.827 -221.497,218.55 -226.414,214.563C-226.887,214.109 -244.936,197.762 -245.496,197.543C-257.488,190.631 -268.622,173.756 -272.473,160.75C-274.066,153.859 -274.215,146.859 -274.285,139.813C-274.296,138.814 -274.306,137.816 -274.317,136.787C-274.236,130.118 -273.103,124.451 -270.848,118.188C-270.425,116.985 -270.002,115.782 -269.566,114.543C-269.164,113.498 -268.762,112.452 -268.348,111.375C-267.945,110.317 -267.543,109.258 -267.129,108.168C-265.9,105.309 -264.624,102.744 -262.848,100.188C-262.188,100.188 -247.964,81.548 -240.848,76.188C-238.051,74.941 -233.848,70.868 -233.848,70.188C-231.906,68.785 -231.906,68.785 -229.285,67.25C-228.438,66.746 -227.591,66.242 -226.719,65.723C-219.902,62.078 -213.373,60.201 -205.848,58.563C-204.889,58.346 -203.93,58.129 -202.941,57.906C-194.981,56.135 -187.27,55.025 -179.117,54.879C-178.293,54.864 -177.468,54.848 -176.619,54.833C-142.688,54.32 -142.688,54.32 -127.848,61.188C-126.883,61.62 -126.883,61.62 -125.898,62.061C-122.46,63.624 -119.124,65.31 -115.848,67.188C-115.848,67.848 -106.209,73.103 -102.785,75.125C-101.887,75.646 -101.887,75.646 -100.971,76.178C-98.315,77.722 -95.677,79.292 -93.059,80.898C-90.953,82.126 -86.848,84.507 -86.848,85.188C-86.244,85.309 -85.641,85.43 -85.02,85.555C-84.22,85.722 -83.421,85.89 -82.598,86.063C-81.809,86.225 -81.02,86.387 -80.207,86.555C-77.848,87.188 -77.848,87.188 -76.035,88.242C-72.789,89.645 -69.571,89.484 -66.098,89.438C-65.021,89.428 -65.021,89.428 -63.922,89.419C-58.848,89.324 -54.628,88.839 -49.848,87.188C-48.651,86.796 -47.455,86.404 -46.223,86C-42.506,84.004 -42.327,52.739 -39.904,49.365C-38.548,48.039 -29.082,47.128 -31.196,48.125C-31.354,48.2 -29.528,47.076 -29.848,47.188C-30.781,47.52 -38.223,96.255 -46.926,94.32C-59.574,98.074 -76.548,98.684 -88.453,92.566C-89.243,92.111 -90.034,91.656 -90.848,91.188C-92.428,90.411 -94.011,89.639 -95.598,88.875C-96.67,88.318 -97.743,87.761 -98.848,87.188C-98.848,86.528 -106.734,82.782 -109.66,81.125C-111.124,80.303 -111.124,80.303 -112.617,79.465C-113.353,79.043 -114.089,78.622 -114.848,78.188C-114.848,77.751 -123.952,73.165 -127.41,71.313C-152.719,58.215 -185.248,61.357 -211.848,69.188C-218.401,71.471 -224.2,74.175 -229.848,78.188C-230.508,78.188 -236.567,82.551 -237.848,85.188C-239.514,86.521 -241.181,87.854 -242.848,89.188C-245.328,91.736 -247.592,94.44 -249.848,97.188C-250.621,98.123 -251.395,99.059 -252.191,100.023C-256.535,105.51 -259.679,110.163 -261.301,117C-262.042,119.964 -263.436,122.492 -264.848,125.188C-268.886,138.644 -265.778,155.822 -259.848,168.188C-256.969,173.122 -253.282,177.424 -249.652,181.82C-248.066,183.9 -246.999,185.86 -245.848,188.188C-244.534,188.891 -243.196,189.551 -241.848,190.188C-238.868,192.533 -236.18,194.845 -233.539,197.566C-230.755,200.278 -227.854,202.512 -224.723,204.813C-216.369,211.096 -208.22,218.105 -202.848,227.188C-202.848,228.178 -198.528,236.188 -197.848,236.188C-195.711,244.096 -194.549,251.516 -194.535,259.688C-194.53,260.44 -194.525,261.193 -194.52,261.968C-194.596,268.114 -196.238,273.051 -198.785,278.625C-200.049,281.394 -201.235,284.167 -202.348,287C-203.86,290.213 -205.252,291.828 -207.848,294.188C-208.425,294.971 -209.003,295.755 -209.598,296.563C-217.152,305.376 -228.246,311.038 -239.184,314.328C-241.774,315.081 -241.774,315.081 -243.749,316.181C-245.899,317.212 -247.757,317.708 -250.094,318.152C-250.92,318.311 -251.747,318.47 -252.599,318.633C-253.485,318.796 -254.372,318.958 -255.285,319.125C-256.211,319.298 -257.137,319.47 -258.091,319.648C-269.339,321.702 -280.659,323.372 -292.02,324.676C-299.535,325.544 -306.923,326.675 -314.348,328.125C-315.585,328.362 -315.585,328.362 -316.848,328.603C-320.794,329.401 -324.497,330.357 -328.254,331.816C-331.848,333.188 -336.157,335.603 -336.832,335.816C-346.924,339.223 -358.954,344.232 -364.973,353.438C-373.226,371.69 -371.503,393.857 -364.848,412.188C-363.561,415.499 -362.227,418.762 -360.766,422C-359.848,424.188 -355.868,432.788 -354.848,436.188C-354.188,436.188 -339.848,452.508 -339.848,453.188C-339.323,453.414 -338.798,453.641 -338.258,453.875C-335.004,455.647 -332.178,457.893 -329.285,460.188C-328.36,460.918 -328.36,460.918 -327.416,461.663C-321.654,466.257 -316.249,471.176 -310.848,476.188C-305.851,480.658 -300.745,485.006 -295.66,489.375C-295.065,489.887 -294.471,490.398 -293.858,490.925C-291.277,493.138 -288.699,495.302 -286.004,497.379C-283.53,499.454 -278.511,506.769 -277.848,508.063C-277.476,508.782 -277.105,509.501 -276.723,510.242C-275.848,512.188 -271.181,520.854 -269.848,524.188C-269.515,524.978 -269.183,525.768 -268.84,526.582C-266.601,532.462 -265.487,537.836 -265.535,544.125C-265.536,544.824 -265.538,545.524 -265.539,546.244C-265.638,551.543 -266.493,555.478 -268.848,560.188C-269.508,560.188 -271.301,561.301 -271.535,561.875C-274.995,567.97 -282.299,574.451 -288.848,577.188C-289.838,577.188 -291.848,578.508 -291.848,579.188C-293.008,579.623 -294.168,580.059 -295.363,580.508C-303.572,583.625 -311.564,586.849 -319.363,590.91C-321.48,591.998 -323.587,592.968 -325.785,593.875C-328.874,595.117 -328.874,595.117 -331.66,596.875C-333.848,598.188 -335.848,599.508 -335.848,600.188C-337.678,601.364 -339.565,602.453 -341.473,603.5C-341.788,603.678 -348.662,607.666 -351.473,610.125C-353.848,612.188 -355.848,613.508 -355.848,614.188C-356.631,614.765 -357.415,615.343 -358.223,615.938C-362.564,619.659 -363.098,624.257 -363.691,629.789C-364.225,637.986 -365.249,647.565 -362.819,655.524C-362.159,655.524 -349.887,673.832 -341.625,680.703C-339.212,682.719 -337.04,684.936 -334.848,687.188C-332.307,689.794 -329.811,692.217 -326.973,694.5C-324.741,696.328 -322.908,698.227 -321.066,700.445C-317.554,704.507 -313.809,708.29 -309.996,712.066C-309.371,712.686 -308.745,713.306 -308.101,713.945C-305.481,716.537 -302.858,719.125 -300.23,721.709C-298.294,723.615 -296.363,725.528 -294.434,727.441C-293.847,728.015 -293.26,728.588 -292.656,729.178C-288.889,732.923 -285.868,736.819 -282.848,741.188C-282.177,741.853 -281.507,742.518 -280.816,743.203C-278.21,745.83 -276.31,748.823 -274.348,751.938C-273.756,752.87 -273.756,752.87 -273.153,753.822C-265.848,765.459 -264.528,771.188 -263.848,771.188C-262.198,777.676 -261.536,783.568 -261.598,790.25C-261.586,791.519 -261.586,791.519 -261.574,792.814C-261.603,802.215 -264.364,809.985 -267.723,818.688C-268.062,819.586 -268.401,820.484 -268.75,821.41C-270.829,826.842 -273.149,832.037 -275.848,837.188C-276.328,838.147 -276.809,839.106 -277.305,840.094C-281.638,848.385 -286.799,854.794 -294.074,860.668C-296.464,862.716 -298.635,864.949 -300.848,867.188C-301.8,868.13 -302.753,869.071 -303.707,870.012C-304.671,870.966 -305.634,871.921 -306.598,872.875C-307.338,873.603 -307.338,873.603 -308.094,874.346C-310.814,877.006 -315.4,881.357 -315.685,881.959C-316.799,884.093 -318.019,885.913 -319.457,887.84C-325.649,896.269 -331.139,904.332 -334.848,914.188C-335.151,914.951 -335.454,915.714 -335.766,916.501C-342.585,933.951 -345.599,953.155 -338.848,971.188C-336.992,974.171 -331.848,979.508 -331.848,980.188C-327.626,981.605 -323.393,982.977 -319.148,984.324C-277.125,997.703 -277.125,997.703 -265.316,1005.59C-262.871,1007.32 -250.708,1015.7 -250.121,1015.97C-242.828,1019.89 -231.476,1038.19 -230.848,1038.19C-226.159,1049.24 -222.226,1060.1 -221.848,1072.19C-221.796,1073.4 -221.745,1074.62 -221.691,1075.87C-221.402,1085.66 -222.713,1094.65 -224.848,1104.19C-225.138,1105.73 -225.138,1105.73 -225.434,1107.3C-227.314,1116.33 -238.327,1133.63 -238.574,1134.37C-240.034,1137.6 -241.823,1139.71 -244.223,1142.31C-244.994,1143.16 -245.764,1144.01 -246.559,1144.88C-248.567,1146.9 -250.462,1148.63 -252.848,1150.19C-253.508,1150.19 -258.602,1155.11 -260.535,1156.5C-264.679,1159.48 -268.277,1162.55 -271.848,1166.19C-273.217,1167.33 -274.61,1168.43 -276.035,1169.5C-276.709,1170.01 -277.384,1170.52 -278.078,1171.05C-279.848,1172.19 -281.848,1173.51 -281.848,1174.19C-283.527,1175.48 -283.527,1175.48 -285.723,1176.81C-286.802,1177.48 -286.802,1177.48 -287.902,1178.16C-289.848,1179.19 -291.848,1180.51 -291.848,1181.19C-293.352,1182.48 -293.352,1182.48 -295.41,1183.94C-319.95,1201.82 -330.829,1232.13 -336.438,1261.25C-338.235,1274.12 -335.582,1283.85 -327.848,1294.19C-326.765,1295.8 -326.765,1295.8 -325.66,1297.44C-321.654,1301.36 -311.848,1306.51 -311.848,1307.19C-311.146,1307.3 -310.445,1307.4 -309.723,1307.52C-306.486,1308.27 -303.838,1309.49 -300.848,1310.94C-296.387,1313.03 -291.924,1315.05 -287.348,1316.88C-286.409,1317.25 -285.471,1317.62 -284.504,1318.01C-274.251,1321.31 -263.988,1322.83 -253.285,1323.75C-251.917,1323.87 -250.549,1324 -249.181,1324.12C-236.599,1325.24 -223.992,1325.93 -211.377,1326.54C-210.635,1326.58 -209.894,1326.62 -209.131,1326.65C-207.12,1326.75 -205.109,1326.85 -203.099,1326.94C-200.495,1327.14 -198.341,1327.51 -195.848,1328.19C-194.438,1328.35 -193.024,1328.48 -191.609,1328.58C-171.111,1330.25 -148.81,1334.84 -133.848,1350.19C-126.848,1358.58 -125.528,1364.19 -124.848,1364.19C-121.025,1378.93 -120.73,1396.1 -126.848,1410.19C-127.363,1411.44 -127.877,1412.7 -128.391,1413.96C-134.485,1428.56 -141.799,1442.57 -149.848,1456.19C-150.611,1457.5 -150.611,1457.5 -151.391,1458.84C-152.481,1460.66 -157.301,1465.24 -157.535,1465.79C-159.296,1469.01 -161.557,1471.77 -163.848,1474.62C-164.843,1475.88 -165.837,1477.14 -166.832,1478.4C-168.722,1480.78 -170.629,1483.15 -172.551,1485.5C-190.182,1507.37 -196.431,1535.48 -194.848,1563.19C-192.631,1581.33 -179.421,1596.85 -165.348,1607.88C-164.615,1608.46 -163.883,1609.04 -163.129,1609.64C-160.76,1611.25 -158.529,1612.2 -155.848,1613.19C-154.491,1613.81 -153.137,1614.43 -151.785,1615.06C-129.379,1624.93 -99.091,1626.23 -75.848,1618.19C-73.915,1617.55 -71.981,1616.91 -70.047,1616.28C-65.871,1614.9 -61.705,1613.5 -57.543,1612.09C-51.895,1610.18 -46.218,1608.51 -40.457,1606.98C-37.871,1606.28 -37.871,1606.28 -35.738,1605.09C-33.848,1604.19 -29.848,1602.87 -29.848,1602.19C-22.504,1598.43 -22.504,1598.43 -19.348,1597.25C-16.216,1595.92 -13.533,1594.11 -10.715,1592.21C-8.848,1591.19 -5.848,1589.87 -5.848,1589.19C-3.831,1587.78 -1.835,1586.5 0.277,1585.25C1.132,1584.73 1.132,1584.73 2.004,1584.2C5.638,1582 9.347,1580.06 13.152,1578.19C14.391,1577.53 15.626,1576.87 16.859,1576.21C21.271,1573.83 25.706,1571.5 30.152,1569.19C31.196,1568.64 31.196,1568.64 32.261,1568.09C52.42,1557.68 73.756,1552.73 96.402,1552.62C97.512,1552.62 97.512,1552.62 98.644,1552.61C114.416,1552.6 145.801,1567.25 146.298,1567.43C155.036,1571.12 162.468,1577.36 169.88,1583.18C171.842,1584.72 187.501,1595.7 188.195,1595.96C191.704,1597.42 206.405,1606.57 207.051,1606.77C207.868,1607.03 222.421,1614.68 223.59,1614.94C228.983,1617.65 230.156,1619.59 239.079,1622.74C258.22,1630.69 272.511,1633.37 290.152,1633.38C292.001,1633.39 292.001,1633.39 293.887,1633.41C300.379,1633.42 314.792,1631.19 316.152,1631.19C316.152,1630.53 324.164,1624.86 326.84,1623.38C334.063,1619.2 334.063,1619.2 338.152,1612.19C339.111,1600.07 337.364,1589.29 334.441,1577.56C333.269,1572.83 332.426,1568.12 331.715,1563.31C330.633,1556.21 329.009,1549.33 327.215,1542.38C319.701,1513.19 312.022,1482.63 328.031,1454.94C331.199,1450.28 331.199,1450.28 333.152,1448.19C333.812,1448.19 338.977,1442.62 341.527,1440.94C342.298,1440.42 343.069,1439.9 343.863,1439.36C346.152,1438.19 350.152,1436.87 350.152,1436.19C368.949,1428.94 388.714,1427.01 408.617,1424.9C432.886,1423.34 432.886,1423.34 455.152,1415.19C456.142,1415.19 459.762,1411.67 461.902,1409.94C464.549,1407.71 466.696,1405.69 468.527,1402.75C469.064,1401.9 474.567,1393.34 475.882,1390.86C480.148,1382.8 483.078,1375.1 485.152,1366.19C485.365,1365.31 485.578,1364.42 485.797,1363.52C487.214,1357.11 487.859,1350.73 488.152,1344.19C488.211,1342.91 488.211,1342.91 488.271,1341.61C488.936,1325.13 488.007,1309.64 479.931,1294.93C479.152,1293.19 476.593,1289.14 476.305,1288.61C471.204,1279.24 465.687,1270.5 458.754,1262.38C457.186,1260.23 443.644,1232.52 443.383,1231.66C443.039,1230.54 442.694,1229.41 442.34,1228.25C442.003,1227.15 441.667,1226.05 441.32,1224.91C440.707,1222.96 440.085,1221 439.388,1219.08C437.416,1213.57 436.452,1208.38 435.965,1202.56C435.846,1201.22 435.846,1201.22 435.726,1199.86C435.168,1192.89 434.945,1185.93 434.902,1178.94C434.893,1178 434.884,1177.06 434.874,1176.09C434.916,1167.04 436.259,1159.85 441.152,1152.19C441.812,1152.19 451.472,1139.19 452.152,1139.19C452.399,1138.63 452.645,1138.08 452.898,1137.51C457.191,1129.56 472.2,1114.3 473.152,1112.19C473.812,1112.19 485.152,1094.19 486.57,1091.36C491.776,1080.91 493.27,1069.5 494.827,1058.07C495.152,1056.19 495.152,1056.19 496.152,1053.19C497.622,1042.16 497.372,1030.9 497.393,1019.8C497.402,1016.66 497.433,1013.51 497.465,1010.37C497.937,983.233 497.937,983.233 489.152,958.188C489.152,956.867 480.369,942.517 479.57,940.813C476.978,935.63 473.74,930.956 470.465,926.188C465.599,919.014 461.023,911.791 456.906,904.162C455.527,901.609 454.162,899.2 452.414,896.879C451.152,895.188 448.15,890.272 447.652,888.813C447.374,888 447.095,887.188 446.809,886.352C446.152,884.188 438.339,861.642 438.192,850.392C438.148,847.953 438.038,845.52 437.93,843.082C437.581,832.814 438.377,824.225 441.926,814.566C442.933,811.791 443.632,809.265 444.152,806.375C445.271,800.935 447.72,796.148 450.152,791.188C450.704,790.034 451.256,788.88 451.824,787.691C458.776,773.309 457.466,777.214 461.842,772.092C462.502,772.092 464.588,767.875 464.737,767.238C465.3,765.113 469.317,761.156 469.402,760.625C470.474,757.143 476.332,750.31 476.516,749.414C477.174,747.111 478.059,745.577 479.34,743.563C481.985,738.941 483.677,734.16 485.34,729.125C485.59,728.369 485.839,727.614 486.096,726.835C488.495,719.395 490.371,712.04 491.258,704.262C491.342,703.53 491.426,702.798 491.512,702.044C492.365,694.031 492.504,686.052 492.465,678C492.463,676.85 492.463,676.85 492.46,675.677C492.477,639.639 492.477,639.639 481.105,606.043C480.152,604.188 478.832,602.188 478.152,602.188C477.146,600.525 476.146,598.858 475.152,597.188C474.162,596.528 473.172,595.867 472.152,595.188C472.152,594.528 470.049,592.61 468.965,592.313C465.152,591.188 465.152,591.188 463.07,590.133C458.648,588.7 454.271,588.976 449.652,588.938C440.103,588.697 433.392,587.244 425.152,582.188C423.747,581.41 423.747,581.41 422.313,580.617C421.6,580.145 420.887,579.674 420.152,579.188C420.152,578.528 415.444,576.454 414.528,576.187C404.6,572.537 399.682,563.569 395.198,554.193C392.113,546.952 390.15,539.384 388.17,531.786C387.596,529.585 387.009,527.388 386.42,525.191C382.241,509.423 378.976,493.685 378.965,477.313C378.953,476.383 378.94,475.454 378.928,474.496C378.907,464.743 379.937,452.362 386.512,444.578C388.316,442.988 390.204,441.599 392.152,440.188C393.678,438.981 395.203,437.774 396.728,436.566C401.292,432.98 405.901,429.624 410.84,426.563C420.058,420.813 427.437,414.103 434.609,406.02C439.162,400.95 444.1,396.318 449.09,391.688C449.685,391.132 450.28,390.576 450.893,390.004C453.684,387.411 456.491,384.885 459.453,382.488C461.639,380.625 463.014,379.318 464.402,376.875C464.98,375.988 465.557,375.101 466.152,374.188C466.812,374.188 468.317,372.62 468.402,371.813C469.219,367.865 470.578,364.464 472.109,360.75C476.948,348.861 479.209,336.294 481.504,323.719C481.857,321.795 482.227,319.873 482.68,317.971C483.294,314.354 483.334,310.783 483.355,307.125C483.362,306.345 483.369,305.564 483.376,304.76C483.393,302.236 483.4,299.712 483.402,297.188C483.404,296.331 483.406,295.475 483.408,294.593C483.416,282.266 482.857,270.339 480.516,258.204C479.917,254.882 478.461,247.953 477.781,247.953C477.132,245.725 476.559,242.302 475.915,240.073C475.555,238.831 472.679,232.089 472.152,229.188C471.492,229.188 469.483,225.843 468.686,224.18C467.92,222.562 466.637,221.757 465.855,220.105C464.177,217.229 460.517,212.128 459.619,211.924C456.175,211.001 451.765,209.283 448.527,207.813C442.497,205.122 436.553,202.854 430.152,201.188C429.018,200.857 427.884,200.528 426.715,200.188C425.539,199.857 424.364,199.528 423.152,199.188C422.424,198.95 421.696,198.713 420.945,198.469C413.31,196.123 405.708,195.403 397.797,194.648C391.87,194.08 386.021,193.185 380.152,192.188C378.856,191.995 377.559,191.803 376.223,191.605C365.237,189.887 354.624,187.06 347.152,178.188C346.389,177.466 345.626,176.744 344.84,176C343.152,174.188 336.118,159.355 333.902,152.813C333.632,152.028 333.362,151.243 333.083,150.434C332.833,149.685 332.582,148.936 332.324,148.164C332.098,147.495 331.872,146.825 331.64,146.135C331.152,144.188 330.798,143.34 329.39,140.274C328.052,136.575 325.334,131.129 325.042,130.271C324.643,129.102 324.356,127.849 323.945,126.645C323.41,125.096 322.875,123.548 322.34,122C322.079,121.231 321.818,120.462 321.549,119.67C320.101,115.504 318.443,111.97 316.152,108.188C315.538,105.501 309.714,90.976 309.488,90.352C307.017,83.823 303.867,78.082 300.152,72.188C299.431,70.946 299.431,70.946 298.695,69.68C290.555,56.531 274.207,43.932 259.109,40.027C257.73,39.716 256.349,39.416 254.965,39.125C253.851,38.878 253.851,38.878 252.714,38.625C251.218,38.293 249.722,37.964 248.224,37.64C245.4,37.023 242.59,36.354 239.777,35.688C222.133,31.34 222.133,31.34 204.152,29.188C203.026,29.113 201.899,29.038 200.738,28.961C189.094,28.518 174.06,29.582 164.152,36.188C162.642,36.642 161.119,37.054 159.59,37.438C154.562,38.862 150.547,41.143 146.184,43.98C144.152,45.188 120.406,57.688 108.152,60.188C107.446,60.337 106.74,60.487 106.012,60.641C104.041,60.966 102.15,61.105 100.152,61.188C98.972,61.239 97.791,61.291 96.574,61.344C83.395,61.73 72.13,59.994 61.152,52.188C60.121,51.466 59.09,50.744 58.027,50C53.614,46.135 50.489,40.962 47.152,36.188C43.805,31.468 40.787,27.731 36.152,24.188C36.152,23.528 34.626,21.61 33.84,21.313C31.152,20.188 26.791,16.023 26.09,15.938C23.152,15.188 23.152,15.188 20.09,13.313C13.223,9.228 4.949,7.341 -2.953,8.68C-12.318,11.19 -18.731,21.329 -23.71,29.136C-26.81,34.726 -28.326,41.019 -29.848,47.188C-35.202,56.01 -41.588,53.701 -39.904,49.365C-38.928,46.861 -37.958,44.403 -36.727,42.012C-35.738,39.961 -35.362,38.114 -34.973,35.875C-34.041,31.335 -27.721,23.125 -27.656,22.578C-26.489,19.128 -24.238,16.668 -21.91,13.938C-21.454,13.383 -20.999,12.829 -20.529,12.258C-19.352,10.858 -14.848,6.868 -14.848,6.188C-10.191,2.478 -5.866,0.595 0,0Z" style="fill:rgb(14,14,14);fill-rule:nonzero;"/>
    </g>
    <g transform="matrix(1.10143,0,0,1.14242,123.096,1551.46)">
        <path d="M0,0C1.679,0.634 3.35,1.293 5,2L5,5C1.37,4.67 -2.26,4.34 -6,4C-6.33,2.68 -6.66,1.36 -7,0C-4.27,-1.365 -2.928,-0.749 0,0Z" style="fill:rgb(240,240,240);fill-rule:nonzero;"/>
    </g>
    <g transform="matrix(1.10143,0,0,1.14242,102.169,1542.18)">
        <path d="M0,0C3,1.125 3,1.125 5,2.125L5,5.125C2.36,4.465 -0.28,3.805 -3,3.125L-3,1.125C-3.66,0.795 -4.32,0.465 -5,0.125C-3,-0.875 -3,-0.875 0,0Z" style="fill:rgb(241,241,241);fill-rule:nonzero;"/>
    </g>
    <g transform="matrix(1.10143,0,0,1.14242,171.559,1342.4)">
        <path d="M0,0C1.32,0.66 2.64,1.32 4,2C2.35,3.65 0.7,5.3 -1,7C-1.99,6.67 -2.98,6.34 -4,6C-3.34,4.68 -2.68,3.36 -2,2L0,2L0,0Z" style="fill:rgb(30,30,30);fill-rule:nonzero;"/>
    </g>
    <g transform="matrix(1.10143,0,0,1.14242,369.817,146.281)">
        <path d="M0,0L8,0C7.67,0.99 7.34,1.98 7,3L1,3C0.67,2.01 0.34,1.02 0,0Z" style="fill:rgb(2,2,2);fill-rule:nonzero;"/>
    </g>
    <g transform="matrix(1.10143,0,0,1.14242,164.951,137.141)">
        <path d="M0,0C0.66,0.33 1.32,0.66 2,1C0.63,4.161 0.011,4.993 -3,7C-3.66,6.67 -4.32,6.34 -5,6L-5,4L-2,4C-1.34,2.68 -0.68,1.36 0,0Z" style="fill:rgb(239,239,239);fill-rule:nonzero;"/>
    </g>
    <g transform="matrix(1.10143,0,0,1.14242,84.5463,1414.37)">
        <path d="M0,0C1,3 1,3 -0.438,6.188C-1.211,7.58 -1.211,7.58 -2,9C-2.66,7.68 -3.32,6.36 -4,5C-2.68,3.35 -1.36,1.7 0,0Z" style="fill:rgb(240,240,240);fill-rule:nonzero;"/>
    </g>
    <g transform="matrix(1.10143,0,0,1.14242,87.8506,853.441)">
        <path d="M0,0C2.886,0.398 3.822,0.79 5.75,3.063C6.162,3.702 6.575,4.341 7,5L3,5L3,3C2.01,2.67 1.02,2.34 0,2L0,0Z" style="fill:rgb(241,241,241);fill-rule:nonzero;"/>
    </g>
    <g transform="matrix(1.10143,0,0,1.14242,808.187,1783.38)">
        <path d="M0,0C0.66,0.33 1.32,0.66 2,1C2.594,3.649 2.742,6.292 3,9C0,7 0,7 -0.75,3.938C-0.833,2.968 -0.915,1.999 -1,1C-0.67,0.67 -0.34,0.34 0,0Z" style="fill:rgb(27,27,27);fill-rule:nonzero;"/>
    </g>
    <g transform="matrix(1.10143,0,0,1.14242,873.172,541.559)">
        <path d="M0,0C0.66,0.66 1.32,1.32 2,2C-0.97,4.475 -0.97,4.475 -4,7C-4.33,6.34 -4.66,5.68 -5,5C-4.34,4.01 -3.68,3.02 -3,2L0,2L0,0Z" style="fill:rgb(243,243,243);fill-rule:nonzero;"/>
    </g>
    <g transform="matrix(1.10143,0,0,1.14242,952.475,471.872)">
        <path d="M0,0C0.33,0.99 0.66,1.98 1,3C-0.32,3.99 -1.64,4.98 -3,6C-3.66,5.01 -4.32,4.02 -5,3C-3.35,2.01 -1.7,1.02 0,0Z" style="fill:rgb(240,240,240);fill-rule:nonzero;"/>
    </g>
</svg>
